<?xml version="1.0" encoding="UTF-8" standalone="no"?>
<!-- Created with Inkscape (http://www.inkscape.org/) -->

<svg
   width="210mm"
   height="297mm"
   viewBox="0 0 210 297"
   version="1.1"
   id="svg5"
   inkscape:version="1.1.1 (3bf5ae0d25, 2021-09-20)"
   sodipodi:docname="icon.svg"
   xmlns:inkscape="http://www.inkscape.org/namespaces/inkscape"
   xmlns:sodipodi="http://sodipodi.sourceforge.net/DTD/sodipodi-0.dtd"
   xmlns="http://www.w3.org/2000/svg"
   xmlns:svg="http://www.w3.org/2000/svg">
  <sodipodi:namedview
     id="namedview7"
     pagecolor="#ffffff"
     bordercolor="#666666"
     borderopacity="1.0"
     inkscape:pageshadow="2"
     inkscape:pageopacity="0.0"
     inkscape:pagecheckerboard="0"
     inkscape:document-units="mm"
     showgrid="false"
     inkscape:zoom="0.18351571"
     inkscape:cx="-1664.7076"
     inkscape:cy="19.071936"
     inkscape:window-width="1920"
     inkscape:window-height="1009"
     inkscape:window-x="-8"
     inkscape:window-y="-8"
     inkscape:window-maximized="1"
     inkscape:current-layer="layer1" />
  <defs
     id="defs2" />
  <g
     inkscape:label="Layer 1"
     inkscape:groupmode="layer"
     id="layer1">
    <g
       id="g21"
       transform="matrix(3.8118061,0,0,4.5674737,-213.76934,-237.67067)">
      <path
         style="fill:#d0d0d0;fill-opacity:1;stroke-width:0.352778"
         d="m 138.30648,105.57783 c 0,-0.6791 0.0726,-0.95691 0.16133,-0.61736 0.0887,0.33954 0.0887,0.89517 0,1.23472 -0.0887,0.33955 -0.16133,0.0617 -0.16133,-0.61736 z m -39.171404,-0.52917 c 0.0072,-0.58208 0.08625,-0.7775 0.175697,-0.43426 0.08944,0.34324 0.08356,0.81949 -0.01305,1.05833 -0.09664,0.23885 -0.169816,-0.042 -0.162627,-0.62407 z M 88.930655,104.6278 c 0.343241,-0.0894 0.819491,-0.0836 1.058333,0.0131 0.238842,0.0966 -0.04199,0.16982 -0.624075,0.16263 -0.582083,-0.007 -0.777499,-0.0862 -0.434258,-0.1757 z m 2.46273,0.001 c 0.339549,-0.0887 0.895174,-0.0887 1.234722,0 0.339549,0.0887 0.06174,0.16134 -0.617361,0.16134 -0.679097,0 -0.956909,-0.0726 -0.617361,-0.16134 z m 2.469445,0 c 0.339548,-0.0887 0.895173,-0.0887 1.234722,0 0.339548,0.0887 0.06174,0.16134 -0.617361,0.16134 -0.679098,0 -0.95691,-0.0726 -0.617361,-0.16134 z m 7.76782,-0.001 c 0.34325,-0.0894 0.8195,-0.0836 1.05834,0.0131 0.23884,0.0966 -0.042,0.16982 -0.62408,0.16263 -0.58208,-0.007 -0.7775,-0.0862 -0.43426,-0.1757 z m 2.46273,0.001 c 0.33955,-0.0887 0.89518,-0.0887 1.23473,0 0.33955,0.0887 0.0617,0.16134 -0.61736,0.16134 -0.6791,0 -0.95691,-0.0726 -0.61737,-0.16134 z m 2.46945,0 c 0.33955,-0.0887 0.89517,-0.0887 1.23472,0 0.33955,0.0887 0.0617,0.16134 -0.61736,0.16134 -0.6791,0 -0.95691,-0.0726 -0.61736,-0.16134 z m 2.82893,-0.001 c 0.34325,-0.0894 0.8195,-0.0836 1.05834,0.0131 0.23884,0.0966 -0.042,0.16982 -0.62408,0.16263 -0.58208,-0.007 -0.7775,-0.0862 -0.43426,-0.1757 z m 7.40162,0.001 c 0.33955,-0.0887 0.89518,-0.0887 1.23473,0 0.33954,0.0887 0.0617,0.16134 -0.61737,0.16134 -0.67909,0 -0.9569,-0.0726 -0.61736,-0.16134 z m 2.46945,0 c 0.33955,-0.0887 0.89517,-0.0887 1.23472,0 0.33955,0.0887 0.0617,0.16134 -0.61736,0.16134 -0.6791,0 -0.95691,-0.0726 -0.61736,-0.16134 z m 2.64583,0.01 c 0.24254,-0.0979 0.63941,-0.0979 0.88195,0 0.24253,0.0979 0.0441,0.17794 -0.44098,0.17794 -0.48507,0 -0.6835,-0.0801 -0.44097,-0.17794 z m -38.077948,-4.24082 c 0.254661,-0.10191 0.558932,-0.0894 0.676158,0.0279 0.117224,0.11723 -0.09114,0.20061 -0.463021,0.18529 -0.410966,-0.0169 -0.494559,-0.10052 -0.213137,-0.21314 z m 54.506838,-3.992345 c 0,-1.26118 0.064,-1.777118 0.14228,-1.146528 0.0783,0.630591 0.0783,1.662466 0,2.293056 -0.0782,0.63059 -0.14228,0.114653 -0.14228,-1.146528 z m -28.98499,0 c 0,-0.485069 0.0801,-0.683507 0.17793,-0.440972 0.0979,0.242535 0.0979,0.63941 0,0.881944 -0.0979,0.242535 -0.17793,0.0441 -0.17793,-0.440972 z m 0,-2.116666 c 0,-0.48507 0.0801,-0.683507 0.17793,-0.440973 0.0979,0.242535 0.0979,0.63941 0,0.881945 -0.0979,0.242534 -0.17793,0.0441 -0.17793,-0.440972 z m 2.50982,-9.525 c 0,-0.873125 0.0688,-1.230313 0.15289,-0.79375 0.0841,0.436562 0.0841,1.150937 0,1.5875 -0.0841,0.436562 -0.15289,0.07937 -0.15289,-0.79375 z m -45.548708,0.352778 c 0,-0.48507 0.08007,-0.683507 0.177936,-0.440973 0.09786,0.242535 0.09786,0.63941 0,0.881945 -0.09786,0.242535 -0.177936,0.0441 -0.177936,-0.440972 z m 85.794518,-3.351389 c -0.001,-1.74625 0.0586,-2.505103 0.13256,-1.686339 0.074,0.818764 0.0749,2.247514 0.002,3.175 -0.0731,0.927486 -0.13361,0.257589 -0.13468,-1.488661 z m -30.72793,0 c 0.004,-0.776111 0.0762,-1.052073 0.16055,-0.613248 0.0844,0.438825 0.0812,1.073825 -0.007,1.411111 -0.0883,0.337286 -0.15733,-0.02175 -0.15342,-0.797863 z M 79.22887,79.922159 c 0.634066,-0.07851 1.586566,-0.07689 2.116667,0.0036 0.530102,0.08049 0.01132,0.144734 -1.152846,0.142754 -1.164166,-0.002 -1.597886,-0.06784 -0.963821,-0.146354 z M 66.376576,76.65005 c 0,-1.455208 0.06227,-2.050521 0.138381,-1.322916 0.07611,0.727604 0.07611,1.918229 0,2.645833 -0.07611,0.727604 -0.138381,0.132292 -0.138381,-1.322917 z m 76.502944,0.529167 c 0.007,-0.582083 0.0862,-0.7775 0.17569,-0.434258 0.0894,0.343241 0.0836,0.819491 -0.0131,1.058333 -0.0966,0.238842 -0.1698,-0.04199 -0.16261,-0.624075 z m 9.22867,-5.644444 c -0.001,-1.74625 0.0586,-2.505103 0.13256,-1.686339 0.074,0.818764 0.0749,2.247513 0.002,3.175 -0.0731,0.927486 -0.13361,0.257589 -0.13468,-1.488661 z m -30.72793,0 c 0.004,-0.776111 0.0762,-1.052073 0.16055,-0.613248 0.0844,0.438824 0.0812,1.073824 -0.007,1.411111 -0.0883,0.337286 -0.15733,-0.02175 -0.15342,-0.797863 z M 111.822,69.241717 c 0,-0.485069 0.0801,-0.683507 0.17794,-0.440972 0.0979,0.242535 0.0979,0.63941 0,0.881944 -0.0979,0.242535 -0.17794,0.0441 -0.17794,-0.440972 z"
         id="path37" />
      <path
         style="fill:#b9b9b9;fill-opacity:1;stroke-width:0.352778"
         d="m 135.21521,98.345883 0.0108,-7.761111 1.05833,-0.05106 c 0.99188,-0.04786 0.99785,-0.04089 0.095,0.110969 l -0.96332,0.162031 -0.10582,7.650142 -0.10582,7.650136 0.0108,-7.761105 z m -34.80394,6.285407 c 0.25466,-0.10191 0.55893,-0.0894 0.67616,0.0278 0.11722,0.11723 -0.0911,0.2006 -0.46303,0.18529 -0.41096,-0.0169 -0.49455,-0.10052 -0.21313,-0.21314 z m 13.91938,-9.52849 c 0.34325,-0.08944 0.8195,-0.08356 1.05834,0.01307 0.23884,0.09663 -0.042,0.169816 -0.62408,0.162627 -0.58208,-0.0072 -0.7775,-0.08625 -0.43426,-0.175697 z m -10.06088,-1.753055 c 0.24254,-0.09786 0.63941,-0.09786 0.88195,0 0.24253,0.09786 0.0441,0.177936 -0.44097,0.177936 -0.48507,0 -0.68351,-0.08007 -0.44098,-0.177936 z m 3.71088,-0.01083 c 0.34325,-0.08944 0.8195,-0.08356 1.05834,0.01307 0.23884,0.09663 -0.042,0.169816 -0.62408,0.162626 -0.58208,-0.0072 -0.7775,-0.08625 -0.43426,-0.175698 z m 10.23056,0 c 0.34324,-0.08944 0.81949,-0.08356 1.05833,0.01307 0.23884,0.09663 -0.042,0.169816 -0.62407,0.162626 -0.58209,-0.0072 -0.7775,-0.08625 -0.43426,-0.175698 z m 3.69745,0.01083 c 0.24254,-0.09786 0.63941,-0.09786 0.88195,0 0.24253,0.09786 0.0441,0.177936 -0.44098,0.177936 -0.48507,0 -0.6835,-0.08007 -0.44097,-0.177936 z m 30.1752,-6.998306 c 0.003,-0.970139 0.0712,-1.325144 0.15225,-0.788899 0.0811,0.536244 0.0789,1.329994 -0.005,1.763888 -0.0838,0.433895 -0.15009,-0.0049 -0.14745,-0.974989 z M 78.015396,82.470883 c 0.0016,-1.358194 0.06533,-1.870591 0.141696,-1.138659 0.07637,0.731932 0.07509,1.843182 -0.0029,2.469444 -0.07792,0.626263 -0.140403,0.02741 -0.138839,-1.330785 z m 43.303754,1.028936 c 0.0169,-0.410966 0.10052,-0.494559 0.21314,-0.213137 0.1019,0.254661 0.0894,0.558932 -0.0278,0.676157 -0.11723,0.117225 -0.2006,-0.09113 -0.18528,-0.46302 z m -8.93549,-1.086185 c 0.24254,-0.09786 0.63941,-0.09786 0.88195,0 0.24253,0.09786 0.0441,0.177936 -0.44098,0.177936 -0.48507,0 -0.6835,-0.08007 -0.44097,-0.177936 z m 9.04105,-5.763584 c 0,-2.231319 0.0573,-3.144132 0.12729,-2.028472 0.07,1.11566 0.07,2.941285 0,4.056944 -0.07,1.11566 -0.12729,0.202848 -0.12729,-2.028472 z m 30.67117,0 c 0,-1.26118 0.064,-1.777118 0.14228,-1.146528 0.0783,0.630591 0.0783,1.662466 0,2.293056 -0.0782,0.63059 -0.14228,0.114653 -0.14228,-1.146528 z m -74.114399,-3.175 c 0,-0.679097 0.0726,-0.956909 0.161334,-0.617361 0.08873,0.339549 0.08873,0.895174 0,1.234722 -0.08873,0.339549 -0.161334,0.06174 -0.161334,-0.617361 z M 57.860077,71.534773 c 0.0072,-0.582084 0.08625,-0.7775 0.175698,-0.434259 0.08944,0.343242 0.08356,0.819492 -0.01307,1.058334 -0.09663,0.238842 -0.169816,-0.04199 -0.162628,-0.624075 z m 63.499993,-2.116667 c 0.007,-0.582083 0.0863,-0.777499 0.1757,-0.434258 0.0894,0.343241 0.0836,0.819491 -0.0131,1.058333 -0.0966,0.238842 -0.1698,-0.04199 -0.16261,-0.624075 z m 30.70474,-1.940278 c 0,-0.679097 0.0726,-0.956909 0.16134,-0.617361 0.0887,0.339549 0.0887,0.895174 0,1.234722 -0.0887,0.339549 -0.16134,0.06174 -0.16134,-0.617361 z"
         id="path35" />
      <path
         style="fill:#a3a3a3;fill-opacity:1;stroke-width:0.352778"
         d="m 74.466767,102.86391 c 0.343241,-0.0894 0.819491,-0.0836 1.058333,0.013 0.238842,0.0966 -0.04199,0.16982 -0.624075,0.16263 -0.582083,-0.007 -0.7775,-0.0863 -0.434258,-0.1757 z m 8.989119,0.0108 c 0.242534,-0.0979 0.639409,-0.0979 0.881944,0 0.242535,0.0979 0.0441,0.17793 -0.440972,0.17793 -0.48507,0 -0.683507,-0.0801 -0.440972,-0.17793 z m 6.88588,-1.77473 c 0.343241,-0.0894 0.819491,-0.0836 1.058333,0.0131 0.238842,0.0966 -0.04199,0.16982 -0.624075,0.16263 -0.582083,-0.007 -0.777499,-0.0863 -0.434258,-0.1757 z m 2.116667,0 c 0.343241,-0.0894 0.819491,-0.0836 1.058332,0.0131 0.238841,0.0966 -0.04199,0.16982 -0.624074,0.16263 -0.582084,-0.007 -0.7775,-0.0863 -0.434258,-0.1757 z m 12.516897,-0.0138 c 0.82462,-0.0743 2.17399,-0.0743 2.99861,0 0.82462,0.0743 0.14993,0.13504 -1.49931,0.13504 -1.64923,0 -2.32392,-0.0608 -1.4993,-0.13504 z m 5.12199,0.0138 c 0.34324,-0.0894 0.81949,-0.0836 1.05833,0.0131 0.23884,0.0966 -0.042,0.16982 -0.62407,0.16263 -0.58208,-0.007 -0.7775,-0.0863 -0.43426,-0.1757 z m 8.64266,-0.0112 c 0.63406,-0.0785 1.58656,-0.0769 2.11667,0.004 0.5301,0.0805 0.0113,0.14474 -1.15285,0.14276 -1.16417,-0.002 -1.59789,-0.0678 -0.96382,-0.14636 z m -13.03705,-7.746424 c 0.25466,-0.101908 0.55893,-0.08937 0.67616,0.02785 0.11723,0.117226 -0.0911,0.200604 -0.46302,0.185286 -0.41097,-0.01693 -0.49456,-0.100521 -0.21314,-0.213136 z m 15.16945,0 c 0.25466,-0.101908 0.55893,-0.08937 0.67616,0.02785 0.11722,0.117226 -0.0911,0.200604 -0.46303,0.185286 -0.41096,-0.01693 -0.49455,-0.100521 -0.21313,-0.213136 z M 74.113989,91.575022 c 0.343241,-0.08944 0.819491,-0.08356 1.058333,0.01307 0.238842,0.09664 -0.04199,0.169817 -0.624075,0.162628 -0.582083,-0.0072 -0.777499,-0.08625 -0.434258,-0.175698 z m 5.108564,0.01083 c 0.242534,-0.09787 0.639409,-0.09787 0.881944,0 0.242535,0.09786 0.0441,0.177936 -0.440972,0.177936 -0.48507,0 -0.683507,-0.08007 -0.440972,-0.177936 z M 105.5045,91.206018 c 1.11566,-0.07001 2.94128,-0.07001 4.05694,0 1.11566,0.07001 0.20285,0.127289 -2.02847,0.127289 -2.23132,0 -3.14413,-0.05728 -2.02847,-0.127289 z m 13.93472,6e-4 c 1.01864,-0.07126 2.68552,-0.07126 3.70416,0 1.01865,0.07126 0.18521,0.129567 -1.85208,0.129567 -2.03729,0 -2.87073,-0.05831 -1.85208,-0.129567 z m 6.93143,-0.588279 c -0.10459,-0.272571 -0.12502,-1.026634 -0.0454,-1.675695 0.1324,-1.079071 0.14963,-1.053478 0.20125,0.298911 0.0562,1.473086 0.0625,1.479564 1.55576,1.614062 l 1.49931,0.13504 -1.51038,0.06163 c -1.0165,0.04148 -1.57256,-0.100418 -1.70055,-0.433951 z m 11.41712,-0.1067 c 0.43883,-0.08438 1.07383,-0.08118 1.41111,0.0071 0.33729,0.0883 -0.0218,0.157337 -0.79786,0.153422 -0.77611,-0.0039 -1.05207,-0.07616 -0.61325,-0.160541 z M 77.955338,85.469494 c 0,-0.485069 0.08007,-0.683507 0.177936,-0.440972 0.09786,0.242535 0.09786,0.63941 0,0.881945 -0.09786,0.242534 -0.177936,0.0441 -0.177936,-0.440973 z m 31.050372,-0.958203 -0.0616,-1.840149 -3.79236,-0.1134 -3.79236,-0.113401 3.80343,-0.07492 c 4.26991,-0.08411 4.26657,-0.08613 4.04157,2.442356 -0.13634,1.532054 -0.13732,1.530568 -0.19865,-0.300483 z m 10.22823,-0.164892 c -0.0543,-1.51353 -0.14076,-1.664602 -1.02945,-1.799226 l -0.97013,-0.146964 0.98121,-0.05286 c 1.15288,-0.06211 1.4113,0.423926 1.21826,2.291294 -0.13546,1.31035 -0.14275,1.299678 -0.19989,-0.292247 z M 89.267426,82.42655 c 0.532163,-0.157715 0.622066,-0.815797 0.720206,-5.271832 l 0.112138,-5.091621 -0.01465,5.199465 c -0.01391,4.934696 -0.05058,5.20315 -0.720207,5.271832 -0.53095,0.05446 -0.555076,0.02777 -0.09749,-0.107844 z m 4.948181,-0.02246 c 0.339549,-0.08873 0.895174,-0.08873 1.234722,0 0.339549,0.08873 0.06174,0.161334 -0.617361,0.161334 -0.679097,0 -0.956909,-0.0726 -0.617361,-0.161334 z m 31.573613,-0.01202 c 0.63059,-0.07825 1.66246,-0.07825 2.29305,0 0.63059,0.07826 0.11465,0.142283 -1.14653,0.142283 -1.26118,0 -1.77711,-0.06403 -1.14652,-0.142283 z M 77.981481,75.591717 c 0,-0.679097 0.0726,-0.95691 0.161334,-0.617361 0.08873,0.339548 0.08873,0.895173 0,1.234722 -0.08873,0.339549 -0.161334,0.06174 -0.161334,-0.617361 z M 57.880268,73.651439 c 0.0039,-0.776111 0.07616,-1.052072 0.160542,-0.613248 0.08438,0.438825 0.08118,1.073825 -0.0071,1.411111 -0.0883,0.337287 -0.157337,-0.02175 -0.153422,-0.797863 z m 85.900612,-1.115582 c 0.24254,-0.09786 0.63941,-0.09786 0.88195,0 0.24253,0.09787 0.0441,0.177936 -0.44098,0.177936 -0.48506,0 -0.6835,-0.08007 -0.44097,-0.177936 z M 119.28035,70.30005 c 0,-1.067152 0.0661,-1.503715 0.14696,-0.970138 0.0808,0.533576 0.0808,1.406701 0,1.940277 -0.0808,0.533577 -0.14696,0.09701 -0.14696,-0.970139 z M 57.873149,69.594495 c 0,-0.679097 0.0726,-0.95691 0.161333,-0.617361 0.08873,0.339548 0.08873,0.895173 0,1.234722 -0.08873,0.339549 -0.161333,0.06174 -0.161333,-0.617361 z"
         id="path33" />
      <path
         style="fill:#8c8c8c;fill-opacity:1;stroke-width:0.352778"
         d="m 97.005335,105.57783 c 0,-0.48507 0.08007,-0.68351 0.177938,-0.44098 0.09786,0.24254 0.09786,0.63941 0,0.88195 -0.09786,0.24253 -0.177938,0.0441 -0.177938,-0.44097 z m -14.79052,-3.88056 c 0,-0.6791 0.0726,-0.95691 0.161333,-0.61736 0.08873,0.33955 0.08873,0.89517 0,1.23472 -0.08873,0.33955 -0.161333,0.0617 -0.161333,-0.61736 z M 76.223942,91.566816 c 0.533576,-0.08083 1.406701,-0.08083 1.940277,0 0.533577,0.08083 0.09701,0.146963 -0.970139,0.146963 -1.067152,0 -1.503715,-0.06613 -0.970138,-0.146963 z m 53.628928,-0.697349 c 0.34325,-0.08944 0.8195,-0.08356 1.05834,0.01307 0.23884,0.09663 -0.042,0.169816 -0.62408,0.162627 -0.58208,-0.0072 -0.7775,-0.08625 -0.43426,-0.175699 z m -47.638055,-2.57775 c 0,-0.679098 0.0726,-0.95691 0.161333,-0.617362 0.08873,0.339549 0.08873,0.895174 0,1.234723 -0.08873,0.339548 -0.161333,0.06174 -0.161333,-0.617361 z m 44.043225,-0.911343 c 0.0169,-0.410966 0.10052,-0.494559 0.21313,-0.213137 0.10191,0.254662 0.0894,0.558933 -0.0278,0.676158 -0.11723,0.117225 -0.2006,-0.09113 -0.18529,-0.463021 z M 150.7248,77.179217 c -2.1e-4,-4.850694 0.0495,-6.883999 0.11041,-4.518454 0.061,2.365545 0.0611,6.334295 3.6e-4,8.819445 -0.0607,2.485149 -0.11055,0.549703 -0.11077,-4.300991 z M 58.602574,70.30005 c 0,-1.067152 0.06613,-1.503715 0.146964,-0.970138 0.08083,0.533576 0.08083,1.406701 0,1.940277 -0.08083,0.533577 -0.146964,0.09701 -0.146964,-0.970139 z"
         id="path31" />
      <path
         style="fill:#767676;fill-opacity:1;stroke-width:0.352778"
         d="m 71.278704,105.9306 c 0,-0.67909 0.0726,-0.9569 0.161333,-0.61736 0.08873,0.33955 0.08873,0.89518 0,1.23473 -0.08873,0.33954 -0.161333,0.0617 -0.161333,-0.61737 z m 53.672336,-6.879162 c 7.1e-4,-2.134305 0.0589,-2.961946 0.12912,-1.839202 0.0702,1.122744 0.0696,2.868994 -0.001,3.880554 -0.071,1.01156 -0.12851,0.093 -0.12771,-2.041352 z M 71.631482,88.291717 c 0,-0.679098 0.0726,-0.95691 0.161333,-0.617362 0.08873,0.339549 0.08873,0.895174 0,1.234723 -0.08873,0.339548 -0.161333,0.06174 -0.161333,-0.617361 z m 58.913888,-3.175 c 0,-0.679098 0.0726,-0.95691 0.16133,-0.617361 0.0887,0.339548 0.0887,0.895173 0,1.234722 -0.0887,0.339548 -0.16133,0.06174 -0.16133,-0.617361 z m 10.2889,-3.880556 c 0,-2.813402 0.0548,-3.96434 0.12175,-2.557639 0.067,1.406702 0.067,3.708577 0,5.115278 -0.067,1.406701 -0.12175,0.255764 -0.12175,-2.557639 z M 89.122378,71.822952 c 0.254662,-0.101907 0.558933,-0.08937 0.676158,0.02785 0.117225,0.117225 -0.09113,0.200604 -0.463021,0.185286 -0.410966,-0.01693 -0.494559,-0.100521 -0.213137,-0.213136 z m 51.640472,-2.404846 c 0.007,-0.582083 0.0863,-0.777499 0.1757,-0.434258 0.0894,0.343241 0.0836,0.819491 -0.0131,1.058333 -0.0966,0.238842 -0.1698,-0.04199 -0.16261,-0.624075 z"
         id="path29" />
      <path
         style="fill:#606060;fill-opacity:1;stroke-width:0.352778"
         d="m 99.840631,103.99033 c 0.0072,-0.58209 0.08625,-0.7775 0.175699,-0.43426 0.0894,0.34324 0.0836,0.81949 -0.013,1.05833 -0.09664,0.23884 -0.169821,-0.042 -0.162631,-0.62407 z m -2.957142,-1.12293 c 0.25466,-0.10191 0.558931,-0.0894 0.676159,0.0278 0.117224,0.11723 -0.09114,0.2006 -0.463021,0.18529 -0.410969,-0.0169 -0.494559,-0.10052 -0.213138,-0.21314 z m 17.638891,0 c 0.25466,-0.10191 0.55893,-0.0894 0.67616,0.0278 0.11722,0.11723 -0.0911,0.2006 -0.46303,0.18529 -0.41096,-0.0169 -0.49455,-0.10052 -0.21313,-0.21314 z m -14.681749,-1.34652 c 0.0072,-0.58208 0.08625,-0.7775 0.175699,-0.43426 0.0894,0.34325 0.0836,0.8195 -0.013,1.05834 -0.09664,0.23884 -0.169821,-0.042 -0.162631,-0.62408 z m 0,-2.469442 c 0.0072,-0.582083 0.08625,-0.777499 0.175699,-0.434258 0.0894,0.343241 0.0836,0.819491 -0.013,1.058334 -0.09666,0.238841 -0.169839,-0.04199 -0.162649,-0.624076 z M 73.409609,97.111161 c 0,-0.873125 0.0688,-1.230313 0.152883,-0.79375 0.08409,0.436562 0.08409,1.150937 0,1.5875 -0.08409,0.436562 -0.152883,0.07937 -0.152883,-0.79375 z m 26.431022,-0.529167 c 0.0072,-0.582083 0.08625,-0.7775 0.175699,-0.434258 0.0894,0.343241 0.0836,0.819491 -0.013,1.058333 -0.09666,0.238842 -0.169839,-0.04199 -0.162649,-0.624075 z m 23.831919,-1.46836 c 0.24253,-0.09786 0.63941,-0.09786 0.88194,0 0.24254,0.09786 0.0441,0.177936 -0.44097,0.177936 -0.48507,0 -0.6835,-0.08007 -0.44097,-0.177936 z M 99.840631,94.11255 c 0.0072,-0.582084 0.08625,-0.7775 0.175699,-0.434258 0.0894,0.343241 0.0836,0.819491 -0.013,1.058333 -0.09666,0.238842 -0.169839,-0.04199 -0.162649,-0.624075 z m 0,-2.469445 c 0.0072,-0.582083 0.08625,-0.777499 0.175699,-0.434258 0.0894,0.343241 0.0836,0.819491 -0.013,1.058333 -0.09666,0.238842 -0.169839,-0.04199 -0.162649,-0.624075 z m 0,-2.469444 c 0.0072,-0.582083 0.08625,-0.7775 0.175699,-0.434258 0.0894,0.343241 0.0836,0.819491 -0.013,1.058333 -0.09666,0.238842 -0.169839,-0.04199 -0.162649,-0.624075 z m -11.251947,-4.7625 c 0,-1.067153 0.06613,-1.503715 0.146963,-0.970139 0.08083,0.533577 0.08083,1.406702 0,1.940278 -0.08083,0.533576 -0.146963,0.09701 -0.146963,-0.970139 z M 84.33783,80.287427 c 0.339549,-0.08873 0.895174,-0.08873 1.234722,0 0.339549,0.08873 0.06174,0.161333 -0.617361,0.161333 -0.679097,0 -0.95691,-0.0726 -0.617361,-0.161333 z m 44.84176,-3.637377 c 0,-1.843264 0.0594,-2.597326 0.13213,-1.675694 0.0727,0.921632 0.0727,2.429757 0,3.351389 -0.0727,0.921632 -0.13213,0.167569 -0.13213,-1.675695 z M 59.826094,72.161048 c 0.634065,-0.07851 1.586565,-0.07689 2.116666,0.0036 0.530102,0.0805 0.01132,0.144736 -1.152845,0.142756 -1.164167,-0.002 -1.597886,-0.06784 -0.963821,-0.146354 z m 7.583254,0.0025 c 0.536244,-0.08109 1.329994,-0.07892 1.763889,0.0048 0.433895,0.08374 -0.0049,0.15008 -0.974989,0.147432 -0.970139,-0.0026 -1.325144,-0.07116 -0.7889,-0.152247 z m 5.646308,0.0087 c 0.343241,-0.08944 0.819491,-0.08356 1.058333,0.01307 0.238842,0.09665 -0.04199,0.169835 -0.624075,0.162645 -0.582083,-0.0072 -0.7775,-0.08625 -0.434258,-0.175698 z m 6.166897,-0.01071 c 0.63059,-0.07825 1.662465,-0.07825 2.293055,0 0.63059,0.07826 0.114653,0.142283 -1.146528,0.142283 -1.26118,0 -1.777118,-0.06403 -1.146527,-0.142283 z m 14.993054,0.01202 c 0.339549,-0.08873 0.895174,-0.08873 1.234722,0 0.339549,0.08873 0.06174,0.161334 -0.617361,0.161334 -0.679097,0 -0.956909,-0.0726 -0.617361,-0.161334 z m 17.998383,-0.0013 c 0.34324,-0.08944 0.81949,-0.08356 1.05833,0.01307 0.23884,0.09663 -0.042,0.169816 -0.62407,0.162627 -0.58209,-0.0072 -0.77751,-0.08625 -0.43426,-0.175699 z m 5.64444,0 c 0.34324,-0.08944 0.81949,-0.08356 1.05833,0.01307 0.23884,0.09663 -0.042,0.169816 -0.62407,0.162627 -0.58208,-0.0072 -0.7775,-0.08625 -0.43426,-0.175699 z m 17.63889,0 c 0.34324,-0.08944 0.81949,-0.08356 1.05833,0.01307 0.23884,0.09663 -0.042,0.169816 -0.62407,0.162627 -0.58209,-0.0072 -0.7775,-0.08625 -0.43426,-0.175699 z M 88.583868,70.123662 c 0.0026,-0.970139 0.07116,-1.325144 0.152247,-0.7889 0.08109,0.536244 0.07892,1.329994 -0.0048,1.763889 -0.08374,0.433895 -0.15008,-0.0049 -0.147432,-0.974989 z m -4.246038,0.285987 c 0.339549,-0.08873 0.895174,-0.08873 1.234722,0 0.339549,0.08873 0.06174,0.161334 -0.617361,0.161334 -0.679097,0 -0.95691,-0.0726 -0.617361,-0.161334 z m 61.03055,0 c 0.33955,-0.08873 0.89518,-0.08873 1.23472,0 0.33955,0.08873 0.0617,0.161334 -0.61736,0.161334 -0.67909,0 -0.95691,-0.0726 -0.61736,-0.161334 z M 69.813598,69.03593 c 0.01693,-0.410966 0.100521,-0.494559 0.213137,-0.213136 0.101907,0.254661 0.08937,0.558932 -0.02785,0.676157 -0.117225,0.117225 -0.200604,-0.09113 -0.185287,-0.463021 z m 59.266662,0 c 0.0169,-0.410966 0.10052,-0.494559 0.21314,-0.213136 0.1019,0.254661 0.0894,0.558932 -0.0278,0.676157 -0.11723,0.117225 -0.2006,-0.09113 -0.18528,-0.463021 z"
         id="path27" />
      <path
         style="fill:#494949;fill-opacity:1;stroke-width:0.352778"
         d="m 73.42284,100.46255 c 0.002,-1.164167 0.06784,-1.597887 0.146354,-0.963821 0.07852,0.634061 0.0769,1.586561 -0.0036,2.116671 -0.0805,0.5301 -0.144736,0.0113 -0.142756,-1.15285 z m 16.25553,-3.880556 c 6e-4,-2.522361 0.05681,-3.507946 0.124869,-2.19019 0.06806,1.317757 0.06756,3.381507 -0.0011,4.586111 -0.06867,1.204605 -0.124357,0.12644 -0.12374,-2.395921 z m 25.00506,2.401361 c 0.34324,-0.08944 0.81949,-0.08356 1.05833,0.01307 0.23885,0.09663 -0.042,0.169816 -0.62407,0.162626 -0.58208,-0.0072 -0.7775,-0.08625 -0.43426,-0.175698 z M 80.105267,97.28755 c 0.0039,-0.776112 0.07616,-1.052073 0.160541,-0.613248 0.08438,0.438824 0.08118,1.073824 -0.0071,1.411111 -0.0883,0.337286 -0.157337,-0.02175 -0.153422,-0.797863 z M 73.42284,93.759772 c 0.002,-1.164167 0.06784,-1.597886 0.146354,-0.963821 0.07852,0.634065 0.0769,1.586565 -0.0036,2.116667 -0.0805,0.530101 -0.144736,0.01132 -0.142756,-1.152846 z m 16.227777,-4.233333 c 0.002,-1.164167 0.06784,-1.597886 0.146354,-0.963821 0.07851,0.634065 0.0769,1.586565 -0.0036,2.116666 -0.0805,0.530102 -0.144736,0.01132 -0.142756,-1.152845 z m 8.060274,-4.409722 c 0,-0.48507 0.08007,-0.683507 0.177937,-0.440973 0.09786,0.242535 0.09786,0.63941 0,0.881945 -0.09786,0.242535 -0.177937,0.0441 -0.177937,-0.440972 z m 31.430479,-4.056945 c 0.004,-0.776111 0.0762,-1.052072 0.16055,-0.613248 0.0844,0.438825 0.0812,1.073825 -0.007,1.411111 -0.0883,0.337287 -0.15733,-0.02175 -0.15342,-0.797863 z M 97.773798,76.65005 c 0,-1.455208 0.06227,-2.050521 0.13838,-1.322916 0.07611,0.727604 0.07611,1.918229 0,2.645833 -0.07611,0.727604 -0.13838,0.132292 -0.13838,-1.322917 z m 31.387932,-5.115277 c 0.002,-1.164167 0.0678,-1.597886 0.14635,-0.963821 0.0785,0.634065 0.0769,1.586565 -0.004,2.116666 -0.0805,0.530102 -0.14473,0.01132 -0.14275,-1.152845 z M 69.874712,70.829217 c 0.0039,-0.776111 0.07616,-1.052073 0.160541,-0.613248 0.08438,0.438825 0.08118,1.073825 -0.0071,1.411111 -0.0883,0.337287 -0.157337,-0.02175 -0.153422,-0.797863 z M 141.31144,70.41919 c 0.24253,-0.09786 0.63941,-0.09786 0.88194,0 0.24254,0.09786 0.0441,0.177936 -0.44097,0.177936 -0.48507,0 -0.68351,-0.08007 -0.44097,-0.177936 z"
         id="path25" />
      <path
         style="fill:#333333;fill-opacity:1;stroke-width:0.352778"
         d="m 69.632634,107.5181 c -0.21164,-1.12814 -0.336836,-1.23472 -1.450372,-1.23472 h -1.218737 v -9.197418 c 0,-7.500727 -0.09297,-9.29039 -0.503968,-9.701388 -0.568805,-0.568806 -3.376587,-0.694527 -3.376587,-0.151191 0,0.194028 -0.47625,0.352778 -1.058333,0.352778 h -1.058333 v -6.35 -6.35 h -1.411111 -1.411111 v -3.174999 c 0,-1.881482 -0.143725,-3.175 -0.352778,-3.175 -0.194028,0 -0.352778,-0.47625 -0.352778,-1.058334 v -1.058333 h 47.272224 47.27222 v 10.715431 10.715431 l -3.2632,-0.181139 c -1.79476,-0.09963 -3.31611,-0.31782 -3.38078,-0.484875 -0.0647,-0.167056 -1.05687,-0.303738 -2.20487,-0.303738 h -2.08727 v 3.351389 3.351389 h -1.41111 -1.41111 v 7.231947 7.23194 h -4.58611 -4.58611 v -1.05833 c 0,-0.58209 -0.15875,-1.05834 -0.35278,-1.05834 -0.19402,0 -0.35277,-0.39687 -0.35277,-0.88194 0,-0.81008 -0.12936,-0.88194 -1.5875,-0.88194 -1.52871,0 -1.5875,0.0392 -1.5875,1.05833 v 1.05833 H 112.29547 99.419079 v -1.23472 c 0,-1.20763 -0.03133,-1.23472 -1.427095,-1.23472 h -1.427099 l 0.231637,1.23472 0.231634,1.23472 h -4.80176 -4.801761 v -1.02059 c 0,-0.93427 -0.51142,-1.44885 -1.439963,-1.44885 -0.178159,0 -0.323925,1.11125 -0.323925,2.46944 v 2.46945 H 77.762508 69.86427 Z m 8.267002,-1.60985 c 0,-1.00672 0.07847,-1.07312 1.146528,-0.97014 1.008309,0.0972 1.138521,0.2275 1.080112,1.08069 -0.06605,0.96475 -0.05381,0.97014 2.204861,0.97014 h 2.271276 v -2.11667 -2.11667 H 83.54408 c -0.940741,0 -1.058333,-0.11759 -1.058333,-1.05833 0,-0.94074 0.117592,-1.05833 1.058333,-1.05833 h 1.058333 V 95.170883 89.702828 H 83.54408 c -0.974339,0 -1.058333,-0.09799 -1.058333,-1.234723 v -1.234722 h -5.468055 -5.468056 v 1.234722 c 0,1.175926 -0.0588,1.234723 -1.234722,1.234723 h -1.234722 v 7.584722 7.58472 h 1.058333 c 0.940741,0 1.058334,0.11759 1.058334,1.05833 v 1.05834 h 3.351388 3.351389 z m -4.233333,-8.6207 v -5.468056 h 3.351389 3.351388 l -0.0031,1.499306 c -0.0017,0.824618 -0.103174,2.332743 -0.225528,3.351388 l -0.222458,1.852084 h -2.067528 -2.067528 v 2.116668 2.11666 h -1.058333 -1.058333 z m 61.736107,1.058333 v -7.584722 h 2.11667 2.11666 v -1.940278 -1.940278 h -6.70277 -6.70278 v 2.116667 2.116667 h 2.46944 2.46945 v 7.408333 7.408328 h 2.11666 2.11667 z m -39.511108,5.644447 c 0,-0.70556 0.176389,-0.88195 0.881944,-0.88195 H 97.65519 V 94.998496 86.88861 L 111.8545,86.7923 126.0538,86.69599 110.97255,86.61191 95.891302,86.52783 v -2.116667 -2.116667 h -1.058334 -1.058333 v -4.938888 -4.938889 h 1.058333 c 1.047644,0 1.058334,-0.0196 1.058334,-1.940278 v -1.940277 h -3.704167 -3.704166 v 1.620527 c 0,1.323839 0.129174,1.654306 0.705555,1.805033 0.664302,0.173719 0.705556,0.481195 0.705556,5.25864 0,4.838947 -0.0327,5.074132 -0.705556,5.074132 -0.62716,0 -0.705555,0.235186 -0.705555,2.116667 v 2.116667 l -2.734028,0.06099 c -2.504534,0.05587 -2.393489,0.08159 1.322917,0.306367 2.231319,0.134955 4.731631,0.266257 5.556249,0.291784 l 1.499306,0.04641 v 6.879167 6.879172 H 92.010746 89.89408 v -6.662744 -6.662737 l -0.970139,-0.130928 c -0.533576,-0.07201 -1.327326,-0.07899 -1.763889,-0.01551 l -0.79375,0.115425 v 7.736575 7.736569 h 0.881945 c 0.705555,0 0.881944,0.17639 0.881944,0.88195 v 0.88194 h 3.880555 3.880556 z m 15.522218,-1.05834 v -1.94027 h -3.88055 -3.88056 v -1.940282 -1.940277 h 2.99861 2.99861 v -1.940278 -1.940278 h -2.99861 c -2.96333,0 -2.99861,-0.01037 -2.99861,-0.881944 v -0.881945 h 3.88056 3.88055 v -1.940277 -1.940278 h -5.82083 -5.820833 v 8.643055 8.643054 h 5.820833 5.82083 z m 11.99445,1.08287 c 0,-0.62058 0.21924,-0.88854 0.79375,-0.97014 0.76821,-0.1091 0.79375,-0.23759 0.79375,-3.993282 0,-3.755693 -0.0255,-3.884182 -0.79375,-3.993286 -0.57451,-0.08159 -0.79375,-0.349561 -0.79375,-0.970138 0,-0.841615 -0.0559,-0.857409 -3.03636,-0.857409 -2.62382,0 -3.00726,-0.07581 -2.82222,-0.558019 0.11777,-0.306911 0.21413,-0.703786 0.21413,-0.881944 0,-0.178159 1.64837,-0.323926 3.66304,-0.323926 3.6271,0 3.6647,-0.0087 3.83164,-0.881944 0.14806,-0.774536 0.0457,-0.881944 -0.84082,-0.881944 -0.88639,0 -1.00941,-0.128991 -1.00941,-1.058334 v -1.058333 h -3.68074 -3.68073 l -0.11163,0.970139 c -0.0877,0.761989 -0.31977,0.994089 -1.08176,1.081765 -0.96744,0.111316 -0.97014,0.119438 -0.97014,2.910417 0,2.750191 0.0153,2.79879 0.88194,2.79879 0.70556,0 0.88195,0.176389 0.88195,0.881944 0,0.871569 0.0353,0.881945 2.99861,0.881945 h 2.99861 v 1.940277 1.940282 h -1.94028 c -1.90494,0 -2.11964,-0.14443 -1.96661,-1.32292 0.0315,-0.242535 -0.14813,-0.44272 -0.39917,-0.444855 -0.25104,-0.0022 -1.05175,-0.102282 -1.77936,-0.222547 l -1.32291,-0.218665 v 2.162827 c 0,1.92764 0.0767,2.16282 0.70555,2.16282 0.51741,0 0.70556,0.23519 0.70556,0.88195 v 0.88194 h 3.88055 c 3.87446,0 3.88056,-0.001 3.88056,-0.85741 z M 78.252414,83.176439 v -2.998611 h 1.940277 1.940278 v 2.998611 2.998611 h 1.940278 1.940277 v -2.998611 -2.998611 h -1.058333 c -0.940741,0 -1.058333,-0.117593 -1.058333,-1.058333 0,-0.940741 0.117592,-1.058334 1.058333,-1.058334 h 1.058333 V 74.180606 70.30005 h -1.058333 c -0.893703,0 -1.058333,-0.137191 -1.058333,-0.881944 V 68.536162 H 78.252414 72.60797 v 1.940277 c 0,1.834445 0.04811,1.940278 0.881944,1.940278 h 0.881944 v 6.879166 6.879167 h 1.940278 1.940278 z m 0,-8.643055 v -2.116667 h 2.116666 2.116667 v 2.116667 2.116666 H 80.36908 78.252414 Z m 31.044446,9.701388 v -1.940278 h -3.88056 -3.88055 v -6.879166 -6.879166 l -1.852087,8.6e-5 -1.852084,8.7e-5 0.04693,8.554774 c 0.02582,4.705126 0.0655,8.673837 0.08819,8.819358 0.02269,0.14552 2.581261,0.264583 5.685701,0.264583 h 5.64445 z m 10.23055,0 c 0,-1.920679 -0.0107,-1.940278 -1.05833,-1.940278 h -1.05834 v -4.938888 -4.938889 h 1.05834 c 1.04764,0 1.05833,-0.0196 1.05833,-1.940278 v -1.940277 h -3.88055 -3.88056 v 1.940277 c 0,1.834445 0.0481,1.940278 0.88195,1.940278 h 0.88194 v 4.938889 4.938888 h -0.88194 c -0.83384,0 -0.88195,0.105834 -0.88195,1.940278 v 1.940278 h 3.88056 3.88055 z m 11.28889,0.881945 c 0,-0.893704 0.13719,-1.058334 0.88194,-1.058334 h 0.88195 v -7.761111 -7.76111 h -1.76389 -1.76389 v 6.879166 6.879166 h -2.11667 -2.11666 v -6.879166 -6.879166 h -1.76389 -1.76389 v 7.76111 7.761111 h 1.05833 c 0.94075,0 1.05834,0.117593 1.05834,1.058334 v 1.058333 h 3.70416 3.70417 z m 10.23055,-3.880556 v -4.938889 h 0.88195 c 0.70555,0 0.88194,0.176389 0.88194,0.881945 0,0.705555 0.17639,0.881944 0.88195,0.881944 0.70555,0 0.88194,-0.176389 0.88194,-0.881944 0,-0.772751 0.15287,-0.881945 1.23472,-0.881945 h 1.23473 v 4.7625 4.7625 h 1.94027 1.94028 v -8.643055 -8.643055 h -1.94028 c -1.83444,0 -1.94027,0.04811 -1.94027,0.881944 0,0.744753 -0.16463,0.881944 -1.05834,0.881944 -0.94074,0 -1.05833,0.117593 -1.05833,1.058334 0,0.940741 -0.11759,1.058333 -1.05833,1.058333 -0.94075,0 -1.05834,-0.117592 -1.05834,-1.058333 0,-0.893704 -0.13719,-1.058334 -0.88194,-1.058334 -0.70556,0 -0.88195,-0.176388 -0.88195,-0.881944 0,-0.871569 -0.0353,-0.881944 -2.99861,-0.881944 h -2.99861 v 1.940277 c 0,1.920679 0.0107,1.940278 1.05834,1.940278 h 1.05833 v 6.879166 6.879167 h 1.94028 1.94027 z M 66.610748,79.138824 v -6.683449 l 1.675694,-0.107523 1.675694,-0.107524 0.106631,-1.852083 0.10663,-1.852083 h -5.857705 -5.857705 l 0.106631,1.852083 0.10663,1.852083 2.028472,0.1058 2.028472,0.105799 v 6.685173 6.685172 h 1.940278 1.940278 z"
         id="path23" />
    </g>
  </g>
</svg>
