<svg width="46" height="36" viewBox="0 0 46 36" fill="none" xmlns="http://www.w3.org/2000/svg">
<g id="dis icon" clip-path="url(#clip0_12_661)">
<path id="Vector" d="M38.7562 3.18053C35.8302 1.81172 32.7022 0.816508 29.4318 0.25C29.0306 0.975742 28.5606 1.95258 28.2375 2.73038C24.7604 2.20828 21.3169 2.20828 17.9041 2.73038C17.581 1.95412 17.1003 0.977273 16.6961 0.25C13.4226 0.816508 10.2899 1.81479 7.36552 3.18665C1.46313 12.1038 -0.136873 20.8004 0.662362 29.3715C4.57586 32.2944 8.36839 34.069 12.0982 35.2311C13.0183 33.9633 13.8406 32.6175 14.5479 31.1966C13.2006 30.6852 11.9098 30.0529 10.6911 29.3195C11.0141 29.0791 11.3311 28.8295 11.6373 28.5708C19.0739 32.0494 27.1535 32.0494 34.5012 28.5708C34.8105 28.828 35.1275 29.0791 35.4475 29.3195C34.2241 30.056 32.9303 30.6883 31.583 31.1997C32.2903 32.616 33.1079 33.9664 34.0327 35.2326C37.7655 34.0705 41.5611 32.2959 45.4762 29.3685C46.4147 19.4316 43.8731 10.8161 38.7577 3.17593L38.7562 3.18053ZM15.5615 24.1C13.3292 24.1 11.498 22.0161 11.498 19.4776C11.498 16.939 13.2894 14.8521 15.5615 14.8521C17.8337 14.8521 19.6633 16.9359 19.6251 19.4776C19.6281 22.0161 17.8337 24.1 15.5615 24.1ZM30.577 24.1C28.3447 24.1 26.5135 22.0161 26.5135 19.4776C26.5135 16.939 28.3049 14.8521 30.577 14.8521C32.8492 14.8521 34.6788 16.9359 34.6406 19.4776C34.6406 22.0161 32.8492 24.1 30.577 24.1Z" fill="#F7574E"/>
</g>
<defs>
<clipPath id="clip0_12_661">
<rect width="45.195" height="34.9857" fill="white" transform="translate(0.470703 0.25)"/>
</clipPath>
</defs>
</svg>
