<svg width="142" height="75" viewBox="0 0 142 75" fill="none" xmlns="http://www.w3.org/2000/svg">
<g id="aw logo">
<g id="Group">
<g id="Group_2">
<path id="Vector" d="M139.28 55.9846C139.716 55.4867 139.777 54.9316 139.976 54.45C140.121 54.1072 140.228 53.748 140.388 53.4215C140.548 53.095 140.854 53.0297 141.175 53.0868C141.503 53.1439 141.671 53.4133 141.686 53.7153C141.725 54.5398 141.709 55.3642 141.709 56.1887C141.709 56.3928 141.633 56.5234 141.419 56.5152C141.198 56.507 141.152 56.352 141.152 56.1642C141.152 55.4949 141.152 54.8173 141.144 54.1398C141.144 53.9847 141.221 53.748 140.976 53.7235C140.816 53.7072 140.778 53.8949 140.724 54.0337C140.487 54.6867 140.251 55.3316 140.006 55.9846C139.846 56.4173 139.548 56.6132 139.12 56.507C138.692 56.4009 138.616 56.0581 138.624 55.6418C138.639 55.1438 138.631 54.6459 138.624 54.1398C138.624 53.9766 138.685 53.7398 138.463 53.7153C138.265 53.699 138.242 53.9276 138.181 54.0908C137.959 54.752 137.73 55.3969 137.516 56.0581C137.424 56.3438 137.317 56.6132 136.989 56.4907C136.607 56.3438 136.913 56.0581 136.966 55.8703C137.172 55.1847 137.417 54.5071 137.661 53.8296C137.829 53.3562 138.066 52.9562 138.624 53.0705C139.174 53.1848 139.166 53.6664 139.181 54.1235C139.204 54.7112 139.112 55.3071 139.28 55.9846Z" fill="#9B9A9A"/>
<path id="Vector_2" d="M135.781 53.0701C136.064 53.0701 136.347 53.0701 136.622 53.0701C136.813 53.0701 136.942 53.1436 136.927 53.3721C136.912 53.568 136.79 53.6415 136.637 53.617C135.934 53.5027 135.965 53.9843 135.98 54.4904C135.995 55.0128 135.988 55.5353 135.98 56.0659C135.98 56.2618 135.995 56.4903 135.72 56.4985C135.445 56.5066 135.438 56.2944 135.438 56.0903C135.43 55.4945 135.43 54.8904 135.438 54.2945C135.445 53.9109 135.422 53.5843 134.934 53.6252C134.727 53.6415 134.544 53.5843 134.575 53.2986C134.605 52.9966 134.834 53.0701 135.01 53.0619C135.27 53.0619 135.529 53.0701 135.781 53.0701Z" fill="#9B9A9A"/>
</g>
<g id="Group_3">
<path id="Vector_3" d="M89.2884 53.6576H79.7024C79.3205 53.6576 79.2289 53.6576 79.2289 53.6576C78.824 53.6331 78.7095 53.4781 78.656 53.4291C78.5873 53.3556 78.5109 53.225 78.5338 52.923C78.5567 52.7924 78.5796 52.6454 78.6025 52.4903C79.3358 48.4579 79.9774 44.956 80.5274 41.9847C80.5961 41.6256 80.5274 41.3236 80.3593 41.095C80.1913 40.8909 79.9316 40.793 79.6261 40.793C78.4192 40.8175 77.4415 40.8175 76.7083 40.793C76.3263 40.793 76.0666 40.9481 75.9521 41.095C75.784 41.2501 75.6924 41.4787 75.6465 41.7562C75.1959 44.2948 74.4855 48.0987 73.5613 53.1679C73.4391 53.8291 73.4162 54.0331 73.3933 54.1311C73.3474 54.5392 73.3474 54.9392 73.4162 55.2739C73.5613 56.0575 73.9127 56.7187 74.4855 57.2248C75.0584 57.7064 75.7229 57.9595 76.4791 57.9595C76.9298 57.9595 78.9463 57.9595 82.6508 57.9595C86.1185 57.9595 88.1809 57.9595 88.8683 57.9595H88.8912C89.1509 57.9595 89.3877 57.886 89.5787 57.7309C89.7696 57.5513 89.8842 57.3228 89.9377 57.0207C89.9835 56.7432 90.1057 56.033 90.3196 54.9147C90.3654 54.5882 90.4112 54.229 90.1744 53.9515C89.93 53.6821 89.6016 53.6576 89.2884 53.6576Z" fill="#212121"/>
<path id="Vector_4" d="M71.1317 41.3235C70.7498 40.997 70.2533 40.8174 69.6804 40.8174H61.5151C57.2225 40.8174 54.5338 40.8174 53.327 40.8174C53.0214 40.8174 52.7847 40.8908 52.5937 41.0459C52.3798 41.2255 52.2576 41.4786 52.2118 41.8051C52.0896 42.5642 51.975 43.2499 51.8299 43.8621C51.7382 44.2948 51.807 44.6458 52.0208 44.8498C52.2576 45.1029 52.5631 45.1274 52.8076 45.1274C54.045 45.1274 56.7947 45.1274 61.2325 45.1274C63.7226 45.1274 65.2197 45.1274 65.7162 45.1274C65.953 45.1274 66.121 45.1763 66.2356 45.307C66.3043 45.3804 66.4036 45.4865 66.4036 45.7641C66.4036 46.1232 66.3349 46.4498 66.1897 46.7028C66.0675 46.9069 65.93 47.0293 65.762 47.1109C65.571 47.1844 65.3343 47.2415 65.0516 47.2415C60.3007 47.2415 55.9622 47.2415 52.166 47.2415C51.8833 47.2415 51.6695 47.2905 51.4785 47.4456C51.2646 47.6007 51.1195 47.8538 51.0508 48.2048C50.6689 50.3598 50.1495 53.2494 49.4849 56.8003C49.462 56.9309 49.3933 57.3064 49.6072 57.6084C49.7294 57.788 49.9432 57.992 50.3633 57.992H50.3863C51.3869 57.992 52.3798 57.992 53.3804 57.992C53.7623 57.992 53.9762 57.8369 54.0908 57.7145C54.2359 57.5594 54.3276 57.3553 54.3734 57.0778C54.4192 56.7513 54.7553 54.9718 55.3435 51.723C55.3664 51.625 55.3664 51.5924 55.3893 51.5679C55.4122 51.5679 55.4351 51.5434 55.5115 51.5434C60.3312 51.5434 63.2261 51.5434 64.1732 51.5434C64.5322 51.5434 64.6468 51.6413 64.6697 51.6413C64.7385 51.6903 64.8149 51.8699 64.8607 52.1964C65.0058 53.2657 65.2197 54.882 65.4794 57.0451C65.5023 57.2982 65.6016 57.5023 65.7162 57.6574C65.8384 57.788 66.0522 57.9349 66.4036 57.9349C67.7097 57.9349 68.8249 57.9349 69.6804 57.9349C70.1998 57.9594 70.4137 57.6574 70.513 57.4778C70.6581 57.2002 70.6352 56.9227 70.5817 56.7431C70.5588 56.6452 70.5359 56.4901 70.5359 56.335C70.513 56.0819 70.4901 55.9023 70.4901 55.8534L70.2074 53.7229C70.0852 52.8821 69.9936 52.1474 69.9019 51.5924C69.8332 51.1107 69.6651 50.7026 69.3825 50.4496C69.2909 50.3761 69.1916 50.2945 69.0999 50.221C70.1234 49.7639 70.765 48.9313 70.9713 47.8374C71.3303 45.8865 71.567 44.5886 71.6816 44.0335C71.7274 43.756 71.7504 43.5764 71.7733 43.5274V43.4785C71.8191 43.2254 71.8191 42.9969 71.8191 42.7683C71.7962 42.1887 71.5594 41.6826 71.1317 41.3235Z" fill="#212121"/>
<path id="Vector_5" d="M110.103 41.5521C109.53 41.046 108.866 40.793 108.064 40.793C107.613 40.793 105.551 40.793 101.938 40.793C98.684 40.793 96.6675 40.793 95.7433 40.793C95.4378 40.793 95.201 40.8664 95.01 41.0215C94.7962 41.2011 94.674 41.4542 94.6281 41.8052C94.6052 42.0582 94.5365 42.3847 94.4601 42.7684C94.4143 42.9969 94.3379 43.3235 94.2691 43.7806C94.2004 44.1071 94.1469 44.4663 94.3913 44.7683C94.6358 45.0703 94.9642 45.0948 95.2697 45.0948H105.07C105.215 45.0948 105.306 45.0948 105.329 45.0948C105.566 45.1193 105.757 45.1683 105.849 45.2989C105.895 45.3478 105.994 45.4295 105.971 45.756C105.948 45.9846 105.925 46.2376 105.879 46.5151C105.856 46.6702 105.81 46.9233 105.734 47.2988C105.352 49.4293 105.024 51.2578 104.734 52.6781C104.611 53.2577 104.352 53.5434 103.809 53.6168C103.641 53.6413 103.45 53.6413 103.267 53.6413H97.355L98.325 48.4416C98.348 48.311 98.4167 47.9355 98.2028 47.6334C98.0806 47.4294 97.8438 47.2008 97.3473 47.2253C96.9883 47.2253 96.5377 47.2253 96.0183 47.2253C95.4225 47.2253 94.9719 47.2253 94.6663 47.2253C94.2615 47.2253 93.9789 47.2498 93.765 47.4539C93.5511 47.6579 93.4595 47.96 93.3602 48.3681L91.8173 56.7105C91.7943 56.8656 91.6951 57.2901 91.9624 57.6248C92.2221 57.9839 92.6498 57.984 92.795 57.984C94.5747 57.984 98.6306 57.984 104.879 57.984C105.925 57.984 106.895 57.5758 107.796 56.7922C108.675 56.0085 109.248 55.0453 109.431 53.9515C110.118 50.2456 110.615 47.4865 110.974 45.6335C111.119 44.8744 111.142 44.7438 111.142 44.6948C111.188 44.2867 111.188 43.9112 111.119 43.552C111.035 42.7194 110.676 42.0582 110.103 41.5521Z" fill="#212121"/>
<path id="Vector_6" d="M133.368 41.1521C133.108 40.793 132.658 40.793 132.512 40.793C131.611 40.793 128.976 40.793 124.416 40.793H116.487C115.678 40.793 114.99 41.046 114.448 41.5276C113.875 42.0092 113.524 42.6704 113.379 43.503C113.165 44.6703 112.859 46.4417 112.432 48.7518C112.286 49.5925 112.409 50.2456 112.791 50.7517C113.172 51.2578 113.791 51.5108 114.57 51.5108H123.782C124.874 51.5108 125.47 51.5108 125.608 51.5108C125.776 51.5108 125.913 51.5598 126.012 51.6414C126.104 51.7149 126.18 51.821 126.226 51.9679C126.295 52.2699 126.272 52.5475 126.135 52.8577C125.989 53.1597 125.798 53.3638 125.516 53.4944C125.394 53.5434 125.233 53.5923 125.065 53.5923C124.996 53.5923 124.828 53.6168 124.447 53.6168H118.703C116.403 53.6168 114.502 53.6168 112.959 53.6168C112.653 53.6168 112.416 53.6903 112.225 53.8699C112.034 54.0495 111.889 54.278 111.843 54.6045C111.698 55.5188 111.584 56.2289 111.462 56.6861C111.37 57.1187 111.439 57.4452 111.652 57.6983C111.889 57.9513 112.225 57.9758 112.439 57.9758C114.67 57.9758 119.749 57.9758 127.563 57.9758C128.296 57.9758 128.938 57.7472 129.488 57.2901C130.03 56.833 130.389 56.1963 130.557 55.4371C130.863 53.9188 131.222 52.0087 131.604 49.7558C131.695 49.1436 131.581 48.564 131.245 48.0824C130.908 47.6253 130.435 47.3233 129.87 47.2171C129.747 47.1927 129.61 47.1927 129.465 47.1927H129.129C123.293 47.1927 119.489 47.1927 117.572 47.1927C117.664 46.7355 117.763 46.1805 117.855 45.4948C117.878 45.2662 117.923 45.1356 117.946 45.1111C117.992 45.0866 118.091 45.0621 118.305 45.0621C125.096 45.0621 129.679 45.0621 131.932 45.0621C132.268 45.0621 132.528 44.9642 132.719 44.7846C132.91 44.605 133.024 44.352 133.078 44.0255C133.223 43.1357 133.337 42.4745 133.437 42.0501C133.559 41.9603 133.651 41.5031 133.368 41.1521Z" fill="#212121"/>
<path id="Vector_7" d="M80.5042 32.6795C80.8403 33.2917 81.291 33.7162 81.8333 34.0019C82.3068 34.2304 82.8797 34.361 83.4984 34.361H95.6508C95.6737 34.361 95.6737 34.361 95.6966 34.361C95.9793 34.361 96.1931 34.2304 96.2924 34.1325C96.4605 33.9774 96.575 33.7733 96.6285 33.4958C96.7965 32.5571 96.934 31.8224 97.0333 31.2918C97.0563 31.1612 97.1556 30.7367 96.9111 30.4021C96.7431 30.149 96.4605 30.0184 96.0786 30.0429C95.5362 30.0429 93.0385 30.0429 88.7229 30.0429H86.0649C85.7593 30.0429 85.5455 29.9694 85.3774 29.7898C85.2323 29.6592 85.1864 29.5123 85.2094 29.2838C85.2094 29.2593 85.2323 29.1287 85.2781 28.9001C85.3469 28.6226 85.3698 28.443 85.4003 28.3205C85.4232 28.092 85.4691 27.994 85.492 27.9369C85.5378 27.9124 85.6371 27.9124 85.851 27.9124C91.0526 27.9124 94.2759 27.9124 95.7272 27.9124C96.0098 27.9124 96.2466 27.8389 96.4376 27.6838C96.5827 27.5532 96.7736 27.3573 96.8195 26.9492C96.9646 26.1655 97.0792 25.5043 97.1785 24.9738C97.2472 24.6472 97.3465 24.133 97.0104 23.831C96.7965 23.6024 96.5139 23.5779 96.1091 23.5779C92.5039 23.5779 89.2271 23.5779 86.3093 23.5779C86.3322 23.5044 86.3322 23.4228 86.3551 23.3494L86.4773 22.6637C86.569 22.2066 86.7141 21.88 86.9051 21.7005C87.096 21.5454 87.4245 21.4474 87.8522 21.4474C92.84 21.4474 96.2313 21.4474 97.8888 21.4474C98.2249 21.4474 98.4846 21.3495 98.6985 21.1454C98.8665 20.9658 98.9811 20.7372 99.0345 20.4107C99.1568 19.6271 99.2713 18.9659 99.3936 18.4353C99.5387 17.8802 99.3706 17.57 99.2255 17.4231C98.9887 17.1456 98.6526 17.1211 98.4159 17.1211C97.5145 17.1211 95.4522 17.1211 92.29 17.1211H86.4009C85.3545 17.1211 84.3844 17.5047 83.506 18.2394C82.6276 18.9741 82.0548 19.9128 81.8409 21.0311C81.6041 22.2229 81.3215 23.7493 80.9854 25.5697C80.466 28.4348 80.1758 29.9613 80.1529 30.1082C79.9848 31.0796 80.0994 31.9448 80.5042 32.6795Z" fill="#212121"/>
<path id="Vector_8" d="M57.8194 16.949C58.1784 17.047 58.5526 17.1041 58.9575 17.1286C59.5532 17.1776 60.1949 17.1531 60.9052 17.0551C61.3788 16.9817 61.9975 16.8756 62.7537 16.7286C62.9675 16.6796 63.1585 16.6796 63.3265 16.7286C63.4946 16.7776 63.6626 16.8837 63.8459 17.0551C64.816 17.9939 65.8853 18.6306 67.0234 18.9571C67.665 19.1367 68.3067 19.2346 68.9712 19.2346C69.544 19.2346 70.1093 19.1612 70.6821 19.0306C72.3167 18.6469 73.7222 17.7408 74.8144 16.3123C75.9067 14.892 76.4796 13.2676 76.5483 11.4636C76.5712 10.982 76.617 10.7779 76.64 10.7044C76.6858 10.5249 76.7851 10.4024 76.9226 10.2963C77.2281 10.0677 77.61 9.76571 78.0148 9.43103C78.2516 9.22696 78.5877 8.94942 79.0613 8.54128C79.7945 7.90457 80.3445 7.21889 80.6729 6.43526C80.8868 5.95365 80.8181 5.54551 80.7417 5.31695C80.65 5.08839 80.4591 4.76187 79.9855 4.5578C79.6036 4.40271 79.1758 4.30475 78.6564 4.28027C77.4954 4.23129 76.2122 4.37822 74.8602 4.73738C74.6693 4.78636 74.5013 4.78636 74.3409 4.76187C74.1957 4.7129 74.0353 4.63127 73.8902 4.48434C72.2785 2.96604 70.4759 2.19874 68.5511 2.22322H68.0775C67.8636 2.22322 67.6727 2.24771 67.5046 2.2722C65.6333 2.59872 64.0598 3.51296 62.8759 5.0639C61.6919 6.5577 61.0962 8.36169 61.0503 10.4187C61.0503 10.7208 60.9281 10.9493 60.6913 11.1534C59.7671 11.9125 59.0797 12.5003 58.629 12.8758C58.2471 13.2023 57.9416 13.5125 57.7048 13.7655C57.3687 14.1492 57.109 14.5491 56.9486 14.9818C56.7347 15.5124 56.8035 15.945 56.9257 16.198C57.0326 16.4429 57.2694 16.7939 57.8194 16.949Z" fill="#212121"/>
<path id="Vector_9" d="M109.988 34.3521C110.156 34.3521 110.676 34.3521 111.508 34.3521C112.15 34.3521 112.692 34.3521 113.097 34.3276C113.479 34.3031 113.693 34.1235 113.83 33.9439C113.922 33.7888 113.998 33.6419 114.044 33.4133L114.564 30.5972C115.159 27.3728 115.61 24.9403 115.915 23.3159C115.961 23.0873 116.038 23.0139 116.061 23.0139C116.084 22.9894 116.152 22.9404 116.397 22.9649C116.42 22.9649 116.443 22.9649 116.519 23.0139C116.542 23.0384 116.611 23.1118 116.733 23.3159L122.003 32.091C122.431 32.7766 122.904 33.3317 123.424 33.6909C124.02 34.1235 124.707 34.3521 125.486 34.3766C125.532 34.3766 125.578 34.3766 125.654 34.3766C125.746 34.3766 125.868 34.3766 125.96 34.3521C126.028 34.3276 126.151 34.3031 126.319 34.2786C127.503 34.0501 128.549 33.4705 129.427 32.5807C130.306 31.691 130.848 30.6053 131.093 29.3319C131.329 28.0912 131.497 27.1769 131.612 26.5647L133.132 18.4182C133.201 18.059 133.155 17.757 132.987 17.5284C132.796 17.2754 132.536 17.1448 132.154 17.1693C131.154 17.1937 130.184 17.1937 129.305 17.1693C129 17.1693 128.732 17.2427 128.549 17.4223L128.526 17.4468C128.358 17.6019 128.266 17.8305 128.221 18.108C127.915 19.8548 127.648 21.3078 127.434 22.418L126.365 28.1483C126.296 28.4748 126.197 28.5075 126.105 28.532C126.036 28.5564 125.914 28.5809 125.746 28.2789C125.624 28.0748 125.463 27.7973 125.272 27.4953C125.013 27.0626 124.845 26.8096 124.799 26.7361L120.193 19.2508C119.742 18.5406 119.246 18.01 118.673 17.6509C118.031 17.2672 117.298 17.1203 116.488 17.1693C115.251 17.2672 114.136 17.806 113.12 18.7692C112.119 19.7324 111.485 20.8507 111.249 22.1404C111.18 22.5241 110.653 25.3893 109.637 30.7359C109.377 32.0828 109.255 32.8419 109.209 33.0705C109.163 33.3236 109.14 33.4542 109.163 33.6011C109.156 33.9929 109.438 34.3766 109.988 34.3521Z" fill="#212121"/>
<path id="Vector_10" d="M27.5024 40.793H26.456C25.7685 40.793 25.2491 40.793 24.913 40.793C24.3173 40.793 23.7979 40.793 23.393 40.793C23.1104 40.793 22.8736 40.8419 22.6827 40.997C22.5146 41.1276 22.3771 41.2991 22.232 41.5521C21.8272 42.4419 21.0481 44.1887 19.8794 46.8008C18.9094 48.9803 18.0997 50.7353 17.5269 52.0496C17.481 52.1802 17.3817 52.2781 17.2672 52.4087C17.2672 52.4087 17.2443 52.4332 17.2213 52.4577C17.1984 52.4087 17.1984 52.3842 17.1984 52.3842L16.7936 48.0498C16.6485 46.3764 16.4881 44.2948 16.2971 41.8868C16.2742 41.5603 16.1749 41.3317 16.0145 41.1276C15.8235 40.9236 15.5639 40.8011 15.2049 40.8256C14.0209 40.8501 13.0662 40.8501 12.3329 40.8256C11.9739 40.8011 11.6913 40.8746 11.4545 41.0542C11.2406 41.2093 11.0497 41.4623 10.9122 41.7644C10.4386 42.8337 9.67478 44.5316 8.6589 46.7845C7.65829 48.964 6.92502 50.6374 6.40562 51.8047C6.31396 52.0332 6.16883 52.2373 6.02371 52.4169C5.95496 52.2373 5.9015 52.0904 5.9015 51.9598C5.85567 51.1516 5.71054 49.6252 5.5425 47.4702C5.32863 45.0132 5.16059 43.1357 5.06893 41.9113C5.04602 41.5848 4.9238 41.3317 4.7634 41.1521C4.57245 40.9726 4.33566 40.8991 4.03013 40.8991C2.82329 40.9236 1.86851 40.9236 1.15816 40.8991C0.684589 40.8991 0.447804 41.1032 0.302678 41.2827C0.0658928 41.5848 0.111722 41.9929 0.134637 42.1235C0.180466 42.6541 0.256848 43.4949 0.348507 44.5805L0.822077 49.8782C1.03595 52.2128 1.18107 53.7556 1.24982 54.5474C1.41786 56.1228 2.25043 57.233 3.69405 57.7717C4.16762 57.9513 4.64119 58.0248 5.16823 58.0248C5.68763 58.0248 6.26049 57.9268 6.80281 57.7227C7.87216 57.3391 8.75055 56.6861 9.41508 55.7473C9.77408 55.2412 10.1483 54.58 10.5303 53.7964C10.9122 52.9311 11.1948 52.3026 11.4087 51.87C11.7142 51.1353 11.9815 50.6047 12.1419 50.2211C12.1878 50.5476 12.2336 50.9312 12.2641 51.3149C12.31 51.9271 12.3863 52.8658 12.4551 54.1311C12.5468 55.4535 13.028 56.4901 13.8758 57.2003C14.6855 57.8615 15.6555 58.139 16.7936 57.984C17.863 57.8289 18.7872 57.4779 19.5968 56.8656C20.4065 56.2534 21.0481 55.4208 21.4987 54.376L26.7233 42.8827C26.792 42.7276 26.9372 42.3766 27.1739 41.846L27.5024 40.793Z" fill="#212121"/>
<path id="Vector_11" d="M68.0466 23.1607C67.0765 23.1607 66.0988 23.1607 65.1288 23.1607C64.8691 23.1607 64.6323 23.2097 64.4642 23.3648C64.2504 23.5199 64.1282 23.7484 64.0594 24.0749C64.0136 24.3035 63.6546 26.132 62.9442 29.6338L62.2568 33.0622C62.1881 33.4214 62.1651 33.7724 62.4019 34.0744C62.6387 34.352 62.9748 34.3765 63.2803 34.3765H64.6323C64.8003 34.3765 65.0371 34.3765 65.3426 34.3765C65.6023 34.3765 65.8162 34.3764 66.0072 34.4009C66.0301 34.4009 66.053 34.4009 66.0988 34.4009C66.3585 34.4009 66.5953 34.3275 66.7863 34.1724C66.9772 34.0173 67.0918 33.7642 67.1682 33.4622C67.8785 29.8869 68.4972 26.8421 68.9937 24.4096C69.0854 23.9035 68.9479 23.626 68.8028 23.4709C68.5431 23.1362 68.1611 23.1362 68.0466 23.1607Z" fill="#212121"/>
<path id="Vector_12" d="M34.0564 33.3074C34.5987 33.887 35.2174 34.2216 35.9278 34.2706C36.5236 34.3196 37.1117 34.3441 37.6617 34.3441C38.2345 34.3441 39.9608 34.3441 42.8328 34.3441C46.1096 34.3441 48.0573 34.3441 48.7218 34.3441C48.9586 34.3441 49.1496 34.2951 49.3405 34.189C49.5086 34.091 49.7224 33.8625 49.7912 33.4298C49.8141 33.2258 49.9592 32.4911 50.1731 31.2993C50.2189 31.0463 50.2953 30.6381 50.0509 30.3361C49.8141 30.0096 49.4093 30.0096 49.1725 30.0096H40.61C40.1365 30.0096 39.8768 30.0096 39.7775 30.0096C39.4719 30.0096 39.2046 29.9851 38.9907 29.9606C38.7998 29.9361 38.6852 29.8872 38.6088 29.83C38.5172 29.7566 38.4637 29.577 38.4408 29.4464C38.4408 29.3974 38.4179 29.3158 38.4408 29.1933C38.4408 29.1443 38.4637 28.9892 38.5095 28.7607C38.9143 26.5567 39.556 23.0793 40.4344 18.3612C40.5031 18.002 40.4344 17.7 40.2663 17.4959C40.1441 17.3164 39.9073 17.1123 39.4567 17.1368C38.4561 17.1613 37.486 17.1613 36.6076 17.1368C36.3021 17.1368 36.0347 17.2102 35.8514 17.3898L35.8285 17.4143C35.6605 17.5694 35.5459 17.798 35.4924 18.1C35.3244 19.0142 35.0189 20.7121 34.5453 23.2018C34.1405 25.3568 33.8349 27.0546 33.5981 28.3036C33.5523 28.6056 33.453 29.0627 33.3384 29.6994C33.2468 30.279 33.1933 30.8177 33.2162 31.2748C33.2468 32.0666 33.5294 32.7523 34.0564 33.3074Z" fill="#212121"/>
<path id="Vector_13" d="M0.844795 34.1493L0.867709 34.1738C1.08158 34.3534 1.34128 34.3779 1.50932 34.3779C3.00641 34.3779 3.99938 34.3779 4.52642 34.3779C4.80903 34.3779 5.04582 34.2799 5.21386 34.1248C5.35899 33.9697 5.45064 33.7656 5.49647 33.4881C5.56522 33.08 5.68743 32.4188 5.85547 31.4556C6.0006 30.6964 6.11517 30.0842 6.19155 29.6026C7.80322 29.6026 10.1787 29.6271 13.3104 29.6271C13.593 29.6271 13.8298 29.5536 13.9978 29.3985C14.2117 29.2434 14.3339 28.9904 14.3797 28.6639C14.4485 28.2312 14.5707 27.5455 14.7387 26.6068C14.8075 26.2803 14.8304 25.8966 14.6165 25.6191L14.5936 25.5701C14.3568 25.3171 14.0513 25.2926 13.7152 25.2926C13.3562 25.2926 12.1494 25.2926 10.11 25.2926C8.87257 25.2926 7.83377 25.2926 6.97829 25.2681C7.06995 24.762 7.2609 23.8233 7.49769 22.4519C7.56643 22.1499 7.66573 21.9213 7.85669 21.7418C8.04764 21.5867 8.26151 21.5132 8.56704 21.5132C12.1265 21.5132 14.8609 21.5132 16.6406 21.5132C17.0455 21.5132 17.1371 21.6683 17.183 21.7173C17.2517 21.8152 17.351 21.9703 17.2746 22.354C16.6101 25.9538 15.9456 29.5863 15.281 33.1616C15.2581 33.2922 15.1894 33.6922 15.4262 34.0269C15.5942 34.2554 15.8768 34.386 16.2358 34.386C17.3281 34.3615 18.2981 34.386 19.0849 34.386C19.3904 34.386 19.6577 34.3125 19.8411 34.133L19.864 34.1085C20.032 33.9289 20.1466 33.7003 20.2001 33.4228C21.025 28.8189 21.7812 24.7375 22.4228 21.3091C22.6367 20.1908 22.4228 19.2031 21.827 18.395C21.2083 17.5869 20.3528 17.1787 19.2835 17.1787H7.36784C6.34432 17.1787 5.37426 17.5624 4.47295 18.346C3.59456 19.1051 3.02169 20.0439 2.83837 21.1377C2.6245 22.305 2.24259 24.3049 1.72319 27.1782C1.24962 29.7413 0.867709 31.7412 0.60801 33.2187C0.516351 33.6922 0.684392 33.9942 0.844795 34.1493Z" fill="#212121"/>
<path id="Vector_14" d="M49.5311 42.9725C49.2714 42.2868 48.8666 41.7317 48.2937 41.348C47.7514 40.9644 47.1098 40.793 46.3918 40.793H33.2693C32.2458 40.793 31.2986 41.1766 30.4202 41.9113C29.5189 42.6704 28.969 43.5847 28.7551 44.6295C28.5412 45.7233 28.2586 47.1927 27.9226 49.0456C27.5177 51.2251 27.258 52.6944 27.1129 53.4372C27.0212 53.8944 26.9678 54.278 26.9678 54.58C26.9678 55.0372 27.0365 55.4698 27.1816 55.8698C27.4184 56.531 27.8233 57.0371 28.3656 57.4207C28.9079 57.8044 29.5266 57.9758 30.2369 57.9758C37.4551 57.9758 41.7707 57.9758 43.2219 57.9758C43.9094 57.9758 44.5281 57.8452 45.0475 57.5921C46.6591 56.833 47.6368 55.6167 47.9652 53.9923C48.2708 52.3434 48.8207 49.4293 49.5769 45.3397C49.6457 44.9071 49.6991 44.5316 49.6991 44.2214C49.745 43.7887 49.6762 43.3561 49.5311 42.9725ZM44.5204 46.0662C44.0698 48.5559 43.6649 50.7598 43.3365 52.6128C43.2677 52.972 43.1455 53.225 42.9546 53.3964C42.7636 53.576 42.5039 53.6495 42.1678 53.6495C39.3417 53.6495 36.2559 53.6495 33.002 53.6495C32.7194 53.6495 32.5742 53.6005 32.5055 53.576C32.4138 53.527 32.3145 53.4454 32.2687 53.3474C32.2229 53.274 32.2 53.1924 32.2 53.0944V53.0699C32.2 52.9964 32.2 52.8658 32.2229 52.6618C32.6277 50.3517 33.0325 48.1967 33.4068 46.2458C33.4755 45.8131 33.6207 45.5356 33.8116 45.3805C34.0026 45.2254 34.3081 45.1274 34.7129 45.1274H39.25C41.8165 45.1274 43.3288 45.1274 43.8559 45.1274C44.4288 45.1274 44.4975 45.3805 44.5433 45.5356C44.5433 45.6662 44.5662 45.8376 44.5204 46.0662Z" fill="#212121"/>
<path id="Vector_15" d="M89.5247 52.1313H79.9388C79.5569 52.1313 79.4652 52.1313 79.4652 52.1313C79.0604 52.1068 78.9458 51.9517 78.8923 51.9027C78.8236 51.8292 78.7472 51.6986 78.7701 51.3966C78.793 51.266 78.816 51.1191 78.8389 50.964C79.5721 46.9315 80.2137 43.4297 80.7637 40.4584C80.8324 40.0992 80.7637 39.7972 80.5957 39.5686C80.4276 39.3646 80.1679 39.2666 79.8624 39.2666C78.6555 39.2911 77.6779 39.2911 76.9446 39.2666C76.5627 39.2666 76.303 39.4217 76.1884 39.5686C76.0204 39.7237 75.9287 39.9523 75.8829 40.2298C75.4322 42.7685 74.7219 46.5724 73.7976 51.6415C73.6754 52.3027 73.6525 52.5068 73.6296 52.6047C73.5838 53.0129 73.5838 53.4128 73.6525 53.7475C73.7976 54.5311 74.149 55.1923 74.7219 55.6984C75.2947 56.18 75.9593 56.4331 76.7154 56.4331C77.1661 56.4331 79.1826 56.4331 82.8871 56.4331C86.3549 56.4331 88.4172 56.4331 89.1046 56.4331H89.1276C89.3873 56.4331 89.624 56.3596 89.815 56.2045C90.006 56.025 90.1205 55.7964 90.174 55.4944C90.2198 55.2168 90.342 54.5067 90.5559 53.3883C90.6017 53.0618 90.6476 52.7027 90.4108 52.4251C90.1664 52.1558 89.8379 52.1313 89.5247 52.1313Z" fill="url(#paint0_linear_12_502)"/>
<path id="Vector_16" d="M71.369 39.8059C70.9871 39.4794 70.4906 39.2998 69.9177 39.2998H61.7524C57.4598 39.2998 54.7711 39.2998 53.5643 39.2998C53.2587 39.2998 53.022 39.3733 52.831 39.5284C52.6171 39.7079 52.4949 39.961 52.4491 40.2875C52.3269 41.0467 52.2123 41.7323 52.0672 42.3445C51.9755 42.7772 52.0443 43.1282 52.2581 43.3323C52.4949 43.5853 52.8005 43.6098 53.0449 43.6098C54.2823 43.6098 57.032 43.6098 61.4698 43.6098C63.9599 43.6098 65.457 43.6098 65.9535 43.6098C66.1903 43.6098 66.3583 43.6588 66.4729 43.7894C66.5416 43.8628 66.6409 43.969 66.6409 44.2465C66.6409 44.6057 66.5722 44.9322 66.427 45.1852C66.3048 45.3893 66.1673 45.5117 65.9993 45.5934C65.8083 45.6668 65.5716 45.724 65.289 45.724C60.538 45.724 56.1995 45.724 52.4033 45.724C52.1207 45.724 51.9068 45.773 51.7158 45.928C51.502 46.0831 51.3568 46.3362 51.2881 46.6872C50.9062 48.8422 50.3868 51.7318 49.7222 55.2827C49.6993 55.4133 49.6306 55.7888 49.8445 56.0908C49.9667 56.2704 50.1805 56.4745 50.6006 56.4745H50.6236C51.6242 56.4745 52.6171 56.4745 53.6177 56.4745C53.9997 56.4745 54.2135 56.3194 54.3281 56.1969C54.4732 56.0418 54.5649 55.8378 54.6107 55.5602C54.6565 55.2337 54.9926 53.4542 55.5808 50.2054C55.6037 50.1074 55.6037 50.0748 55.6266 50.0503C55.6495 50.0503 55.6724 50.0258 55.7488 50.0258C60.5685 50.0258 63.4634 50.0258 64.4106 50.0258C64.7696 50.0258 64.8841 50.1238 64.907 50.1238C64.9758 50.1727 65.0522 50.3523 65.098 50.6788C65.2431 51.7482 65.457 53.3644 65.7167 55.5276C65.7396 55.7806 65.8389 55.9847 65.9535 56.1398C66.0757 56.2704 66.2896 56.4173 66.6409 56.4173C67.9471 56.4173 69.0622 56.4173 69.9177 56.4173C70.4371 56.4418 70.651 56.1398 70.7503 55.9602C70.8954 55.6827 70.8725 55.4051 70.819 55.2255C70.7961 55.1276 70.7732 54.9725 70.7732 54.8174C70.7503 54.5644 70.7274 54.3848 70.7274 54.3358L70.4448 52.2053C70.3225 51.3645 70.2309 50.6299 70.1392 50.0748C70.0705 49.5932 69.9024 49.185 69.6198 48.932C69.5282 48.8585 69.4289 48.7769 69.3372 48.7034C70.3607 48.2463 71.0023 47.4137 71.2086 46.3199C71.5676 44.3689 71.8044 43.071 71.9189 42.516C71.9648 42.2384 71.9877 42.0589 72.0106 42.0099V41.9609C72.0564 41.7079 72.0564 41.4793 72.0564 41.2507C72.0335 40.6712 71.7967 40.1569 71.369 39.8059Z" fill="url(#paint1_linear_12_502)"/>
<path id="Vector_17" d="M110.347 40.0345C109.774 39.5284 109.109 39.2754 108.307 39.2754C107.856 39.2754 105.794 39.2754 102.181 39.2754C98.9274 39.2754 96.9109 39.2754 95.9867 39.2754C95.6811 39.2754 95.4443 39.3489 95.2534 39.5039C95.0395 39.6835 94.9173 39.9366 94.8715 40.2876C94.8485 40.5406 94.7798 40.8671 94.7034 41.2508C94.6576 41.4794 94.5812 41.8059 94.5125 42.263C94.4437 42.5895 94.3903 42.9487 94.6347 43.2507C94.8715 43.5527 95.2075 43.5772 95.5131 43.5772H105.313C105.458 43.5772 105.55 43.5772 105.573 43.5772C105.809 43.6017 106 43.6507 106.092 43.7813C106.138 43.8303 106.237 43.9119 106.214 44.2384C106.191 44.467 106.168 44.72 106.123 44.9976C106.1 45.1526 106.054 45.4057 105.977 45.7812C105.596 47.9117 105.267 49.7402 104.977 51.1605C104.855 51.7401 104.595 52.0258 104.053 52.0992C103.885 52.1237 103.694 52.1237 103.51 52.1237H97.5983L98.5684 46.924C98.5913 46.7934 98.66 46.4179 98.4462 46.1159C98.3239 45.9118 98.0872 45.6832 97.5907 45.7077C97.2317 45.7077 96.781 45.7077 96.2616 45.7077C95.6658 45.7077 95.2152 45.7077 94.9097 45.7077C94.5048 45.7077 94.2222 45.7322 94.0084 45.9363C93.7945 46.1404 93.7028 46.4424 93.6035 46.8505L92.0682 55.2011C92.0453 55.3562 91.946 55.7807 92.2134 56.1154C92.4731 56.4745 92.9008 56.4745 93.0459 56.4745C94.8256 56.4745 98.8815 56.4745 105.13 56.4745C106.176 56.4745 107.146 56.0664 108.047 55.2828C108.926 54.4991 109.499 53.5359 109.682 52.4421C110.369 48.7361 110.866 45.9771 111.225 44.1241C111.37 43.365 111.393 43.2344 111.393 43.1854C111.439 42.7773 111.439 42.4018 111.37 42.0426C111.271 41.2018 110.912 40.5406 110.347 40.0345Z" fill="url(#paint2_linear_12_502)"/>
<path id="Vector_18" d="M133.605 39.6258C133.346 39.2666 132.895 39.2666 132.75 39.2666C131.848 39.2666 129.213 39.2666 124.653 39.2666H116.725C115.915 39.2666 115.228 39.5197 114.685 40.0013C114.113 40.4829 113.761 41.1441 113.616 41.9767C113.402 43.144 113.097 44.9153 112.669 47.2254C112.524 48.0662 112.646 48.7192 113.028 49.2253C113.41 49.7314 114.028 49.9844 114.808 49.9844H124.019C125.112 49.9844 125.707 49.9844 125.845 49.9844C126.013 49.9844 126.15 50.0334 126.25 50.115C126.341 50.1885 126.418 50.2946 126.464 50.4416C126.532 50.7436 126.509 51.0211 126.372 51.3313C126.227 51.6333 126.036 51.8374 125.753 51.968C125.631 52.017 125.471 52.066 125.303 52.066C125.234 52.066 125.066 52.0905 124.684 52.0905H118.94C116.641 52.0905 114.739 52.0905 113.196 52.0905C112.89 52.0905 112.654 52.1639 112.463 52.3435C112.272 52.5231 112.127 52.7516 112.081 53.0782C111.936 53.9924 111.821 54.7026 111.699 55.1597C111.607 55.5923 111.676 55.9188 111.89 56.1719C112.127 56.4249 112.463 56.4494 112.677 56.4494C114.907 56.4494 119.986 56.4494 127.8 56.4494C128.533 56.4494 129.175 56.2209 129.725 55.7637C130.267 55.3066 130.626 54.6699 130.794 53.9108C131.1 52.3925 131.459 50.4824 131.841 48.2294C131.932 47.6172 131.818 47.0376 131.482 46.556C131.146 46.0989 130.672 45.7969 130.107 45.6908C129.985 45.6663 129.847 45.6663 129.702 45.6663H129.366C123.53 45.6663 119.727 45.6663 117.809 45.6663C117.901 45.2092 118 44.6541 118.092 43.9684C118.115 43.7398 118.161 43.6092 118.184 43.5848C118.23 43.5603 118.329 43.5358 118.543 43.5358C125.333 43.5358 129.916 43.5358 132.169 43.5358C132.505 43.5358 132.765 43.4378 132.956 43.2582C133.147 43.0787 133.262 42.8256 133.315 42.4991C133.46 41.6093 133.575 40.9481 133.674 40.5237C133.796 40.4421 133.888 39.9849 133.605 39.6258Z" fill="url(#paint3_linear_12_502)"/>
<path id="Vector_19" d="M80.7411 31.1531C81.0772 31.7653 81.5278 32.1898 82.0702 32.4755C82.5437 32.7041 83.1166 32.8347 83.7353 32.8347H95.8877C95.9106 32.8347 95.9106 32.8347 95.9335 32.8347C96.2161 32.8347 96.43 32.7041 96.5293 32.6061C96.6974 32.451 96.8119 32.247 96.8654 31.9694C97.0334 31.0307 97.1709 30.296 97.2702 29.7654C97.2931 29.6348 97.3924 29.2104 97.148 28.8757C96.98 28.6226 96.6974 28.492 96.3154 28.5165C95.7731 28.5165 93.2754 28.5165 88.9598 28.5165H86.3017C85.9962 28.5165 85.7823 28.4431 85.6143 28.2635C85.4692 28.1329 85.4233 27.9859 85.4463 27.7574C85.4463 27.7329 85.4692 27.6023 85.515 27.3737C85.5837 27.0962 85.6067 26.9166 85.6372 26.7942C85.6601 26.5656 85.706 26.4677 85.7289 26.4105C85.7747 26.386 85.874 26.386 86.0879 26.386C91.2895 26.386 94.5128 26.386 95.9641 26.386C96.2467 26.386 96.4835 26.3126 96.6744 26.1575C96.8196 26.0269 97.0105 25.8309 97.0564 25.4228C97.2015 24.6392 97.3161 23.978 97.4154 23.4474C97.4841 23.1209 97.5834 22.6066 97.2473 22.3046C97.0334 22.076 96.7508 22.0515 96.346 22.0515C92.7408 22.0515 89.464 22.0515 86.5462 22.0515C86.5691 21.9781 86.5691 21.8965 86.592 21.823L86.7142 21.1373C86.8059 20.6802 86.951 20.3537 87.1419 20.1741C87.3329 20.019 87.6613 19.921 88.0891 19.921C93.0768 19.921 96.4682 19.921 98.1257 19.921C98.4618 19.921 98.7215 19.8231 98.9354 19.619C99.1034 19.4394 99.218 19.2109 99.2714 18.8844C99.3937 18.1007 99.5082 17.4395 99.6304 16.9089C99.7756 16.3539 99.6075 16.0437 99.4624 15.8968C99.2256 15.6192 98.8895 15.5947 98.6527 15.5947C97.7514 15.5947 95.6891 15.5947 92.5269 15.5947H86.6378C85.5914 15.5947 84.6213 15.9784 83.7429 16.713C82.8645 17.4477 82.2917 18.3864 82.0778 19.5047C81.841 20.6965 81.5584 22.223 81.2223 24.0433C80.7029 26.9084 80.4127 28.4349 80.3897 28.5818C80.2217 29.5532 80.3439 30.4185 80.7411 31.1531Z" fill="url(#paint4_linear_12_502)"/>
<path id="Vector_20" d="M58.0557 15.1453C58.4147 15.2433 58.789 15.3004 59.1938 15.3249C59.7896 15.3739 60.4312 15.3494 61.1415 15.2514C61.6151 15.178 62.2338 15.0718 62.99 14.9249C63.2039 14.8759 63.3948 14.8759 63.5629 14.9249C63.7309 14.9739 63.8989 15.08 64.0823 15.2514C65.0523 16.1902 66.1217 16.8269 67.2598 17.1534C67.9014 17.333 68.543 17.4309 69.2075 17.4309C69.7804 17.4309 70.3456 17.3574 70.9185 17.2268C72.553 16.8432 73.9585 15.9371 75.0507 14.5086C76.143 13.0883 76.7159 11.4639 76.7846 9.65987C76.8075 9.17826 76.8534 8.97419 76.8763 8.90072C76.9221 8.72114 77.0214 8.5987 77.1589 8.49258C77.4644 8.26402 77.8463 7.96199 78.2512 7.62732C78.4879 7.42325 78.824 7.14571 79.2976 6.73757C80.0309 6.10086 80.5808 5.41518 80.9093 4.63155C81.1231 4.14994 81.0544 3.7418 80.978 3.51324C80.8864 3.28468 80.6954 2.95816 80.2218 2.75409C79.8399 2.599 79.4122 2.50104 78.8928 2.47655C77.7318 2.42758 76.4485 2.57451 75.0966 2.93367C74.9056 2.98265 74.7376 2.98265 74.5772 2.95816C74.4321 2.90919 74.2716 2.82756 74.1265 2.68062C72.5149 1.16233 70.7122 0.395025 68.7874 0.419513H68.3138C68.1 0.419513 67.909 0.444002 67.741 0.468491C65.8696 0.795005 64.2961 1.70925 63.1122 3.26019C61.9283 4.75399 61.3325 6.55798 61.2867 8.61502C61.2867 8.91705 61.1645 9.14561 60.9277 9.34968C60.0034 10.1088 59.316 10.6966 58.8653 11.072C58.4834 11.3986 58.1779 11.7087 57.9411 11.9618C57.605 12.3454 57.3453 12.7454 57.1849 13.1781C56.9711 13.7086 57.0398 14.1413 57.162 14.3943C57.269 14.6637 57.5057 15.0229 58.0557 15.1453Z" fill="url(#paint5_linear_12_502)"/>
<path id="Vector_21" d="M110.225 32.8267C110.393 32.8267 110.912 32.8267 111.745 32.8267C112.386 32.8267 112.928 32.8267 113.333 32.8022C113.715 32.7777 113.929 32.5981 114.067 32.4185C114.158 32.2635 114.235 32.1165 114.28 31.888L114.8 29.0718C115.396 25.8474 115.846 23.4149 116.152 21.7905C116.198 21.5619 116.274 21.4885 116.297 21.4885C116.32 21.464 116.389 21.415 116.633 21.4395C116.656 21.4395 116.679 21.4395 116.755 21.4885C116.778 21.513 116.847 21.5864 116.969 21.7905L122.239 30.5656C122.667 31.2513 123.141 31.8063 123.66 32.1655C124.256 32.5981 124.943 32.8267 125.722 32.8512C125.768 32.8512 125.814 32.8512 125.891 32.8512C125.982 32.8512 126.104 32.8512 126.196 32.8267C126.265 32.8022 126.387 32.7777 126.555 32.7532C127.739 32.5247 128.785 31.9451 129.664 31.0553C130.542 30.1656 131.085 29.0799 131.329 27.8065C131.566 26.5658 131.734 25.6515 131.848 25.0393L133.368 16.8928C133.437 16.5336 133.391 16.2316 133.223 16.003C133.032 15.75 132.773 15.6194 132.391 15.6439C131.39 15.6684 130.42 15.6684 129.542 15.6439C129.236 15.6439 128.969 15.7173 128.785 15.8969L128.763 15.9214C128.594 16.0765 128.503 16.3051 128.457 16.5826C128.151 18.3295 127.884 19.7824 127.67 20.8926L126.601 26.6229C126.532 26.9494 126.433 26.9821 126.341 27.0066C126.272 27.0311 126.15 27.0555 125.982 26.7535C125.86 26.5494 125.7 26.2719 125.509 25.9699C125.249 25.5373 125.081 25.2842 125.035 25.2107L120.429 17.7254C119.979 17.0152 119.482 16.4846 118.909 16.1255C118.268 15.7418 117.534 15.5949 116.725 15.6439C115.487 15.7418 114.372 16.2806 113.356 17.2438C112.356 18.207 111.722 19.3253 111.485 20.6151C111.416 20.9987 110.889 23.8639 109.873 29.2105C109.613 30.5574 109.491 31.3166 109.445 31.5451C109.4 31.7982 109.377 31.9288 109.4 32.0757C109.392 32.4757 109.682 32.8512 110.225 32.8267Z" fill="url(#paint6_linear_12_502)"/>
<path id="Vector_22" d="M27.7397 39.2754H26.6933C26.0058 39.2754 25.4864 39.2754 25.1503 39.2754C24.5546 39.2754 24.0352 39.2754 23.6303 39.2754C23.3477 39.2754 23.1109 39.3244 22.92 39.4795C22.7519 39.6101 22.6145 39.7815 22.4693 40.0345C22.0645 40.9243 21.2854 42.6711 20.1168 45.2833C19.1467 47.4627 18.337 49.2178 17.7642 50.532C17.7183 50.6626 17.6191 50.7605 17.5045 50.8911C17.5045 50.8911 17.4816 50.9156 17.4587 50.9401C17.4357 50.8911 17.4357 50.8666 17.4357 50.8666L17.0309 46.5322C16.8858 44.8588 16.7254 42.7773 16.5344 40.3692C16.5115 40.0427 16.4122 39.8141 16.2518 39.6101C16.0609 39.406 15.8012 39.2836 15.4422 39.308C14.2582 39.3325 13.3035 39.3325 12.5702 39.308C12.2112 39.2836 11.9286 39.357 11.6918 39.5366C11.4779 39.6917 11.287 39.9447 11.1495 40.2468C10.6759 41.3161 9.91208 43.014 8.8962 45.2669C7.89559 47.4464 7.16232 49.1198 6.64292 50.2871C6.55127 50.5156 6.40614 50.7197 6.26101 50.8993C6.19227 50.7197 6.1388 50.5728 6.1388 50.4422C6.09297 49.6341 5.94785 48.1076 5.7798 45.9526C5.56593 43.4956 5.39789 41.6181 5.30623 40.3937C5.28332 40.0672 5.16111 39.8141 5.00071 39.6346C4.80975 39.455 4.57297 39.3815 4.26744 39.3815C3.0606 39.406 2.10582 39.406 1.39546 39.3815C0.921894 39.3815 0.685109 39.5856 0.539982 39.7652C0.303197 40.0672 0.349027 40.4753 0.371942 40.6059C0.417771 41.1365 0.494154 41.9773 0.585812 43.063L1.05938 48.3607C1.27325 50.6952 1.41838 52.238 1.48712 53.0298C1.65516 54.6052 2.48773 55.7154 3.93135 56.2541C4.40492 56.4337 4.87849 56.5072 5.40553 56.5072C5.93257 56.5072 6.4978 56.4092 7.04011 56.2052C8.10946 55.8215 8.98786 55.1685 9.65238 54.2297C10.0114 53.7237 10.3857 53.0625 10.7676 52.2788C11.1495 51.4136 11.4321 50.785 11.646 50.3524C11.9515 49.6177 12.2188 49.0871 12.3792 48.7035C12.4251 49.03 12.4709 49.4137 12.5014 49.7973C12.5473 50.4095 12.6237 51.3483 12.6924 52.6135C12.7841 53.9359 13.2653 54.9726 14.1131 55.6827C14.9228 56.3439 15.8928 56.6215 17.0309 56.4664C18.1003 56.3113 19.0245 55.9603 19.8341 55.3481C20.6438 54.7358 21.2854 53.9032 21.7361 52.8584L26.9606 41.3651C27.0293 41.21 27.1745 40.859 27.4113 40.3284L27.7397 39.2754Z" fill="url(#paint7_linear_12_502)"/>
<path id="Vector_23" d="M68.2829 21.6431C67.3128 21.6431 66.3352 21.6431 65.3651 21.6431C65.1054 21.6431 64.8686 21.6921 64.7006 21.8472C64.4867 22.0023 64.3645 22.2308 64.2957 22.5573C64.2499 22.7859 63.8909 24.6144 63.1806 28.1163L62.4931 31.5447C62.4244 31.9038 62.4015 32.2548 62.6382 32.5568C62.875 32.8344 63.2111 32.8589 63.5166 32.8589H64.8686C65.0367 32.8589 65.2734 32.8589 65.579 32.8589C65.8387 32.8589 66.0525 32.8589 66.2435 32.8834C66.2664 32.8834 66.2893 32.8834 66.3351 32.8834C66.5948 32.8834 66.8316 32.8099 67.0226 32.6548C67.2135 32.4997 67.3281 32.2467 67.4045 31.9446C68.1149 28.3693 68.7336 25.3246 69.23 22.892C69.3217 22.3859 69.1842 22.1084 69.0391 21.9533C68.7794 21.6186 68.3975 21.6186 68.2829 21.6431Z" fill="url(#paint8_linear_12_502)"/>
<path id="Vector_24" d="M34.2928 31.7908C34.8351 32.3704 35.4538 32.705 36.1641 32.754C36.7599 32.803 37.3481 32.8275 37.898 32.8275C38.4709 32.8275 40.1971 32.8275 43.0691 32.8275C46.3459 32.8275 48.2936 32.8275 48.9582 32.8275C49.1949 32.8275 49.3859 32.7785 49.5769 32.6724C49.7449 32.5744 49.9588 32.3459 50.0275 31.9132C50.0504 31.7092 50.1955 30.9745 50.4094 29.7827C50.4552 29.5297 50.5316 29.1215 50.2872 28.8195C50.0504 28.493 49.6456 28.493 49.4088 28.493H40.8464C40.3728 28.493 40.1131 28.493 40.0138 28.493C39.7083 28.493 39.4409 28.4685 39.2271 28.444C39.0361 28.4195 38.9215 28.3706 38.8451 28.3134C38.7535 28.24 38.7 28.0604 38.6771 27.9298C38.6771 27.8808 38.6542 27.7992 38.6771 27.6767C38.6771 27.6277 38.7 27.4726 38.7458 27.2441C39.1507 25.0401 39.7923 21.5627 40.6707 16.8446C40.7394 16.4854 40.6707 16.1834 40.5026 15.9793C40.3804 15.7998 40.1436 15.5957 39.693 15.6202C38.6924 15.6447 37.7223 15.6447 36.8439 15.6202C36.5384 15.6202 36.2711 15.6936 36.0877 15.8732L36.0648 15.8977C35.8968 16.0528 35.7822 16.2814 35.7288 16.5834C35.5607 17.4976 35.2552 19.1955 34.7816 21.6852C34.3768 23.8402 34.0713 25.538 33.8345 26.787C33.7886 27.089 33.6893 27.5461 33.5748 28.1828C33.4831 28.7624 33.4296 29.3011 33.4526 29.7582C33.4831 30.55 33.7734 31.2357 34.2928 31.7908Z" fill="url(#paint9_linear_12_502)"/>
<path id="Vector_25" d="M1.08213 32.6222L1.10504 32.6467C1.31891 32.8263 1.57861 32.8508 1.74665 32.8508C3.24374 32.8508 4.23671 32.8508 4.76375 32.8508C5.04636 32.8508 5.28315 32.7528 5.45119 32.5977C5.59632 32.4426 5.68798 32.2386 5.7338 31.961C5.80255 31.5529 5.92476 30.8917 6.0928 29.9285C6.23793 29.1693 6.3525 28.5571 6.42888 28.0755C8.04055 28.0755 10.416 28.1 13.5477 28.1C13.8303 28.1 14.0671 28.0265 14.2351 27.8714C14.449 27.7163 14.5712 27.4633 14.6171 27.1368C14.6858 26.7042 14.808 26.0185 14.9761 25.0797C15.0448 24.7532 15.0677 24.3696 14.8538 24.092L14.8309 24.0431C14.5941 23.79 14.2886 23.7655 13.9525 23.7655C13.5935 23.7655 12.3867 23.7655 10.3473 23.7655C9.1099 23.7655 8.0711 23.7655 7.21562 23.741C7.30728 23.2349 7.49823 22.2962 7.73502 20.9249C7.80376 20.6228 7.90306 20.3943 8.09402 20.2147C8.28497 20.0596 8.49884 19.9861 8.80437 19.9861C12.3638 19.9861 15.0983 19.9861 16.878 19.9861C17.2828 19.9861 17.3745 20.1412 17.4203 20.1902C17.489 20.2881 17.5883 20.4432 17.5119 20.8269C16.8474 24.4267 16.1829 28.0592 15.5184 31.6345C15.4955 31.7651 15.4267 32.1651 15.6635 32.4998C15.8315 32.7283 16.1142 32.8589 16.4731 32.8589C17.5654 32.8345 18.5355 32.8589 19.3222 32.8589C19.6277 32.8589 19.8951 32.7855 20.0784 32.6059L20.1013 32.5814C20.2693 32.4018 20.3839 32.1733 20.4374 31.8957C21.27 27.3082 22.0261 23.2186 22.6677 19.7984C22.8816 18.6801 22.6678 17.6924 22.072 16.8842C21.4533 16.0761 20.5978 15.668 19.5284 15.668H7.61281C6.58929 15.668 5.61923 16.0516 4.71792 16.8353C3.83952 17.5944 3.26666 18.5331 3.08334 19.627C2.86947 20.7942 2.48756 22.7941 1.96816 25.6675C1.49459 28.2306 1.11268 30.2305 0.85298 31.708C0.753683 32.1733 0.921724 32.4753 1.08213 32.6222Z" fill="url(#paint10_linear_12_502)"/>
<path id="Vector_26" d="M49.7684 41.4549C49.5087 40.7692 49.1039 40.2141 48.531 39.8305C47.9887 39.4468 47.3471 39.2754 46.6291 39.2754H33.5066C32.4831 39.2754 31.536 39.659 30.6576 40.3937C29.7562 41.1528 29.2063 42.0671 28.9924 43.1119C28.7786 44.2058 28.4959 45.6751 28.1599 47.528C27.755 49.7075 27.4953 51.1768 27.3502 51.9197C27.2585 52.3768 27.2051 52.7604 27.2051 53.0625C27.2051 53.5196 27.2738 53.9522 27.4189 54.3522C27.6557 55.0134 28.0606 55.5195 28.6029 55.9031C29.1452 56.2868 29.7639 56.4582 30.4742 56.4582C37.6924 56.4582 42.008 56.4582 43.4592 56.4582C44.1467 56.4582 44.7654 56.3276 45.2848 56.0746C46.8964 55.3154 47.8741 54.0991 48.2026 52.4747C48.5081 50.8258 49.058 47.9117 49.8142 43.8221C49.883 43.3895 49.9364 43.014 49.9364 42.7038C49.9823 42.263 49.9135 41.8304 49.7684 41.4549ZM44.7577 44.5486C44.3071 47.0383 43.9022 49.2422 43.5738 51.0952C43.505 51.4544 43.3828 51.7074 43.1919 51.8788C43.0009 52.0584 42.7412 52.1319 42.4051 52.1319C39.579 52.1319 36.4932 52.1319 33.2393 52.1319C32.9567 52.1319 32.8115 52.0829 32.7428 52.0584C32.6511 52.0094 32.5518 51.9278 32.506 51.8299C32.4602 51.7564 32.4373 51.6748 32.4373 51.5768V51.5523C32.4373 51.4789 32.4373 51.3483 32.4602 51.1442C32.865 48.8341 33.2698 46.6791 33.6441 44.7282C33.7128 44.2955 33.858 44.018 34.0489 43.8629C34.2399 43.7078 34.5454 43.6099 34.9502 43.6099H39.4873C42.0538 43.6099 43.5662 43.6099 44.0932 43.6099C44.6661 43.6099 44.7348 43.8629 44.7806 44.018C44.8112 44.1405 44.8112 44.32 44.7577 44.5486Z" fill="url(#paint11_linear_12_502)"/>
<path id="Vector_27" d="M48.1794 41.2018C47.7517 40.8998 47.2323 40.7447 46.6365 40.7447H40.1593H33.514C32.6586 40.7447 31.826 41.0712 31.0698 41.7079C30.3136 42.3446 29.8324 43.1282 29.6491 44.018C29.4352 45.1118 29.1526 46.5811 28.8165 48.4096C28.4117 50.5891 28.152 52.0584 28.0069 52.8012C27.9381 53.2094 27.8847 53.5604 27.8847 53.8134C27.8847 54.1726 27.9305 54.5236 28.0527 54.8256C28.2437 55.3317 28.5492 55.7398 28.9769 56.0419C29.4047 56.3439 29.9012 56.4745 30.4969 56.4745C37.7151 56.4745 42.0307 56.4745 43.4819 56.4745C44.0777 56.4745 44.5971 56.3765 45.0248 56.1725C46.4456 55.5113 47.2781 54.4746 47.5378 53.0787C47.8433 51.4298 48.3933 48.5402 49.1495 44.4261C49.2182 44.018 49.2717 43.6915 49.2717 43.4384C49.2717 43.0792 49.2259 42.7527 49.1266 42.4507C48.9356 41.9364 48.6301 41.5038 48.1794 41.2018ZM44.0701 43.6343C44.7575 43.6343 45.2082 43.9363 45.3991 44.5486C45.4679 44.8016 45.4908 45.1036 45.422 45.4383C44.9714 47.928 44.5666 50.1075 44.2381 51.9849C44.1465 52.5155 43.9326 52.8992 43.6194 53.2012C43.3139 53.4787 42.9091 53.6338 42.4126 53.6338C39.5635 53.6338 36.5006 53.6338 33.2467 53.6338C32.9412 53.6338 32.6738 53.5848 32.4905 53.5032C32.2308 53.4053 32.0399 53.2257 31.9177 52.9481C31.826 52.7686 31.7725 52.5645 31.7725 52.3686C31.7725 52.189 31.7725 52.0094 31.8184 51.789C32.2232 49.4789 32.628 47.3239 33.0023 45.3485C33.1245 44.769 33.3384 44.3363 33.6439 44.0588C33.9494 43.8057 34.4001 43.6506 34.9729 43.6506H39.5177C42.0307 43.6343 43.5507 43.6343 44.0701 43.6343ZM12.0506 40.8671C11.9284 40.9406 11.8368 41.0957 11.7451 41.2997C11.2715 42.3691 10.5077 44.0425 9.49182 46.3199C8.49121 48.4994 7.75794 50.1728 7.23854 51.3401C7.00176 51.8706 6.66568 52.2788 6.21502 52.6053C6.14628 52.6543 6.09281 52.6788 6.09281 52.6788C6.04698 52.7033 6.00115 52.6543 5.9706 52.6053C5.82547 52.3278 5.7109 52.0992 5.66507 51.9441C5.54286 51.6911 5.49703 51.438 5.47412 51.2095C5.42829 50.4013 5.28316 48.8994 5.11512 46.7444C4.90125 44.2873 4.73321 42.4344 4.64155 41.1855C4.64155 41.0304 4.59572 40.9569 4.54989 40.9079C4.50406 40.8589 4.40476 40.8345 4.29019 40.8345C3.08335 40.8589 2.10566 40.8589 1.3953 40.8345C1.25018 40.8345 1.1356 40.8589 1.08977 40.9324C1.04395 40.9814 1.04395 41.112 1.04395 41.2589C1.08977 41.814 1.16616 42.6303 1.25782 43.7486L1.73139 49.0463C1.94526 51.3809 2.09038 52.9237 2.15913 53.7155C2.30425 55.0052 2.94586 55.8949 4.1527 56.3521C4.98527 56.6541 5.88658 56.6541 6.81081 56.3276C7.75795 56.0011 8.52177 55.4133 9.087 54.6052C9.44599 54.1236 9.77444 53.5114 10.1334 52.7767C10.5153 51.9115 10.798 51.2829 11.0118 50.8503C11.3479 50.0911 11.6076 49.5034 11.768 49.1279C12.0735 48.4667 12.3409 47.8872 12.6006 47.43C12.6464 47.4545 12.6693 47.5035 12.6693 47.5607C12.6693 47.5607 12.6693 47.6096 12.6922 47.7158C12.8832 48.4994 13.0283 49.4136 13.12 50.5074C13.1658 51.1441 13.2422 52.0829 13.3109 53.3236C13.4026 54.4419 13.7845 55.299 14.4719 55.8868C15.1365 56.4418 15.9461 56.6459 16.8933 56.5235C17.8404 56.3929 18.673 56.0664 19.3833 55.5358C20.0937 55.0052 20.6665 54.2705 21.0714 53.3318L26.2959 41.8385C26.3647 41.6834 26.5098 41.3569 26.7466 40.8263C26.0591 40.8263 25.5397 40.8263 25.2036 40.8263C24.585 40.8263 24.0885 40.8263 23.6607 40.8263C23.5156 40.8263 23.4239 40.8508 23.3246 40.8998C23.2559 40.9487 23.1795 41.0549 23.1108 41.1773C22.706 42.0671 21.9269 43.8139 20.7582 46.426C19.7576 48.6055 18.9785 50.3605 18.4056 51.6747C18.314 51.9033 18.1688 52.0829 17.9779 52.2543C17.8862 52.3523 17.6953 52.4829 17.4356 52.6624C17.3897 52.6869 17.3668 52.7114 17.3439 52.7114C17.321 52.7114 17.2752 52.6869 17.2523 52.6624C17.13 52.4829 17.0384 52.3359 16.9926 52.2543C16.9009 52.0747 16.8245 51.9278 16.8245 51.7727L16.4197 47.4137C16.2746 45.7403 16.1142 43.6833 15.9232 41.2508C15.9003 41.0957 15.8774 40.9977 15.8315 40.9243C15.7857 40.8508 15.6635 40.8263 15.526 40.8263C14.3421 40.8508 13.3644 40.8508 12.6311 40.8263C12.3332 40.7447 12.1728 40.7692 12.0506 40.8671ZM39.9683 17.2275C39.9225 17.1785 39.8232 17.154 39.6857 17.154C38.6622 17.1785 37.7151 17.1785 36.8138 17.154C36.6686 17.154 36.577 17.1785 36.5082 17.2275C36.4624 17.2764 36.4166 17.3826 36.386 17.5295C36.218 18.4437 35.9124 20.1661 35.4389 22.6313C35.034 24.7863 34.7285 26.4842 34.4917 27.7331C34.4459 28.0351 34.3466 28.4922 34.232 29.1044C34.1404 29.635 34.0869 30.1166 34.1098 30.5003C34.1327 31.0798 34.3466 31.5941 34.7743 32.0512C35.2021 32.5083 35.6757 32.7614 36.1951 32.8104C36.7908 32.8593 37.3332 32.8838 37.8831 32.8838C38.456 32.8838 40.1822 32.8838 43.0542 32.8838C46.331 32.8838 48.2787 32.8838 48.9433 32.8838C49.0655 32.8838 49.1571 32.8593 49.203 32.8349C49.2717 32.7859 49.3252 32.7043 49.3481 32.5818C49.371 32.3777 49.5161 31.6431 49.73 30.4268C49.7758 30.2227 49.7758 30.1003 49.7529 30.0432C49.73 30.0187 49.6078 29.9942 49.3939 29.9942H40.8162C40.3426 29.9942 40.06 29.9942 39.9607 29.9942C39.6246 29.9942 39.3649 29.9697 39.1052 29.9452C38.7691 29.9207 38.5324 29.7901 38.349 29.6432C38.1581 29.4636 38.0435 29.2106 37.9671 28.884C37.9442 28.7289 37.9442 28.582 37.9671 28.4024C37.9671 28.3534 38.013 28.1739 38.0588 27.9208C38.4636 25.7168 39.1052 22.264 39.9836 17.5458C40.0142 17.3826 39.9913 17.2764 39.9683 17.2275ZM22.0414 20.4028C22.2095 19.4886 22.0643 18.7294 21.5908 18.0927C21.1172 17.456 20.4298 17.154 19.5743 17.154H7.61282C6.73442 17.154 5.90186 17.4805 5.14567 18.1417C4.38949 18.8029 3.90828 19.611 3.74788 20.5253C3.53401 21.6926 3.1521 23.6925 2.6327 26.5658C2.15913 29.1289 1.77721 31.1288 1.51752 32.6063C1.4946 32.7369 1.4946 32.8349 1.54043 32.8838C1.56334 32.9083 1.66264 32.9328 1.77721 32.9328C3.27431 32.9328 4.26728 32.9328 4.79431 32.9328C4.91652 32.9328 4.98527 32.9083 5.0311 32.8593C5.07693 32.8104 5.09984 32.7287 5.12276 32.6063C5.1915 32.1982 5.31371 31.5125 5.50467 30.5737C5.67271 29.7085 5.78728 29.0228 5.86366 28.5412C5.88658 28.3861 5.93241 28.2881 6.00879 28.2147C6.07754 28.1657 6.17683 28.1412 6.31432 28.1412C7.92599 28.1412 10.3702 28.1657 13.6012 28.1657C13.7463 28.1657 13.838 28.1412 13.8838 28.0922C13.9525 28.0433 13.9755 27.9371 14.006 27.8147C14.0748 27.3821 14.197 26.6719 14.3879 25.7332C14.4338 25.5046 14.4338 25.374 14.4108 25.325C14.3879 25.3005 14.2428 25.2761 14.006 25.2761C13.647 25.2761 12.4631 25.2761 10.4237 25.2761C8.97242 25.2761 7.76558 25.2761 6.84136 25.2271C6.69623 25.2271 6.60457 25.2026 6.55874 25.1291C6.51291 25.0801 6.51291 24.974 6.55874 24.8271C6.58166 24.672 6.79553 23.6108 7.17744 21.5783C7.2691 21.0967 7.46005 20.713 7.77322 20.46C8.07875 20.1824 8.46066 20.0518 8.91132 20.0518C12.4936 20.0518 15.1747 20.0518 16.9849 20.0518C17.4585 20.0518 17.8175 20.2069 18.0543 20.5334C18.2911 20.8355 18.3598 21.2681 18.2911 21.7497C17.6265 25.3495 16.962 28.9575 16.2975 32.5573C16.2746 32.7124 16.2746 32.8104 16.3204 32.8593C16.3662 32.9083 16.4426 32.9328 16.5801 32.9328C17.6953 32.9083 18.6424 32.9328 19.4521 32.9328C19.5972 32.9328 19.6889 32.9083 19.7576 32.8593C19.8034 32.8104 19.8493 32.7043 19.8798 32.5573C20.6436 27.88 21.4075 23.872 22.0414 20.4028ZM71.3691 42.5976C71.392 42.3936 71.4149 42.214 71.392 42.0671C71.3691 41.6589 71.224 41.3569 70.9413 41.1283C70.6816 40.8998 70.3226 40.7692 69.9178 40.7692H61.7526C57.5057 40.7692 54.7712 40.7692 53.5644 40.7692C53.4193 40.7692 53.3047 40.7936 53.2589 40.8426C53.1901 40.8916 53.1366 40.9977 53.1137 41.1446C52.9915 41.9283 52.8769 42.614 52.7318 43.2507C52.686 43.4302 52.7089 43.5282 52.7547 43.5772C52.8006 43.6262 52.8999 43.6506 53.0373 43.6506C54.2976 43.6506 57.0932 43.6506 61.4623 43.6506C63.9524 43.6506 65.4495 43.6506 65.9459 43.6506C66.3508 43.6506 66.6563 43.7812 66.916 44.0098C67.1528 44.2629 67.2979 44.5649 67.2979 44.973C67.2979 45.4546 67.2063 45.9118 66.9618 46.3199C66.7709 46.6464 66.5341 46.875 66.2056 47.0301C65.9459 47.1607 65.6099 47.2097 65.2356 47.2097C60.4617 47.2097 56.169 47.2097 52.3499 47.2097C52.2048 47.2097 52.1131 47.2341 52.0673 47.2831C51.9985 47.3321 51.9451 47.4382 51.9222 47.5851C51.5403 49.7401 51.0209 52.6298 50.3563 56.2133C50.3334 56.3439 50.3334 56.4418 50.3563 56.4663C50.3792 56.5153 50.4785 56.5398 50.5931 56.5398C51.5937 56.5398 52.6096 56.5398 53.6102 56.5398C53.7324 56.5398 53.8012 56.5153 53.847 56.4663C53.8928 56.4174 53.9157 56.3357 53.9387 56.2133C53.9845 55.8868 54.3206 54.1073 54.9087 50.8585C54.9545 50.6054 55.0538 50.4013 55.1684 50.3034C55.3135 50.1728 55.4739 50.1238 55.7107 50.1238C60.5304 50.1238 63.4253 50.1238 64.3725 50.1238C64.8002 50.1238 65.1287 50.2217 65.3196 50.4258C65.5335 50.6299 65.6557 50.9564 65.7244 51.4135C65.8696 52.4829 66.0834 54.0991 66.3431 56.2623C66.3661 56.3602 66.366 56.4418 66.4119 56.4908C66.4577 56.5398 66.5035 56.5643 66.6257 56.5643C67.9548 56.5643 69.0471 56.5643 69.9255 56.5643C70.0477 56.5643 70.1393 56.5398 70.1622 56.4908C70.1852 56.4418 70.1852 56.3602 70.1622 56.2378C70.1393 56.1072 70.1164 55.9602 70.0935 55.7807C70.0706 55.5276 70.0477 55.3725 70.0477 55.3235C69.9255 54.3848 69.8338 53.6746 69.7651 53.193C69.6428 52.3523 69.5512 51.6421 69.4595 51.0625C69.4137 50.736 69.3144 50.483 69.154 50.3279C69.0089 50.1728 68.7492 50.0748 68.4436 50.0014L68.0388 49.9279C67.9701 49.9034 67.9472 49.8789 67.9166 49.8544C67.8937 49.8299 67.9166 49.781 67.9624 49.7238C68.0541 49.6503 68.1992 49.4953 68.3673 49.3157C68.5353 49.1606 68.7033 49.0626 68.8408 49.0136C69.788 48.6545 70.3379 48.0014 70.5289 47.0627C70.9108 45.0873 71.1247 43.8139 71.2392 43.2588C71.3232 42.8017 71.3691 42.6221 71.3691 42.5976ZM80.0996 41.0712C80.1225 40.9406 80.1225 40.8426 80.0767 40.8181C80.0537 40.7692 79.9544 40.7692 79.8399 40.7692C78.633 40.7936 77.6553 40.7936 76.8992 40.7692C76.754 40.7692 76.6624 40.7936 76.6165 40.8426C76.5707 40.8916 76.5249 40.9977 76.4943 41.1202C76.0437 43.6588 75.3333 47.4627 74.4091 52.5318C74.3174 53.0134 74.264 53.3155 74.264 53.4461C74.2181 53.8052 74.2411 54.1073 74.2869 54.3603C74.4091 54.997 74.6917 55.5031 75.1195 55.8786C75.5701 56.2623 76.0895 56.4582 76.7082 56.4582C77.1589 56.4582 79.2212 56.4582 82.857 56.4582C86.3247 56.4582 88.387 56.4582 89.0745 56.4582C89.1967 56.4582 89.2884 56.4337 89.3571 56.3847C89.4029 56.3357 89.4488 56.2296 89.4793 56.1072C89.5251 55.8296 89.6473 55.1195 89.8612 54.0012C89.9071 53.7971 89.9071 53.6746 89.8841 53.6175C89.8612 53.593 89.739 53.5685 89.5251 53.5685H79.9392C79.6565 53.5685 79.4656 53.5685 79.4198 53.5685C78.9691 53.544 78.633 53.3644 78.3962 53.1114C78.1595 52.8339 78.0602 52.4747 78.1136 52.0176C78.1366 51.8625 78.1595 51.7155 78.1824 51.536C78.9156 47.5443 79.5573 44.0425 80.0996 41.0712ZM115.113 41.3242C114.685 41.7079 114.403 42.214 114.281 42.8997C114.067 44.067 113.761 45.8138 113.333 48.1484C113.211 48.7606 113.311 49.2422 113.547 49.5687C113.807 49.8952 114.235 50.0748 114.808 50.0748H124.019C125.112 50.0748 125.73 50.0748 125.868 50.0748C126.173 50.0748 126.441 50.1728 126.677 50.3524C126.891 50.5319 127.059 50.7605 127.128 51.0625C127.25 51.5441 127.197 52.0012 126.983 52.4829C126.769 52.9645 126.441 53.291 126.013 53.4706C125.822 53.544 125.608 53.6257 125.371 53.6501C125.249 53.6501 125.012 53.6746 124.707 53.6746C122.163 53.6746 120.246 53.6746 118.963 53.6746C116.664 53.6746 114.762 53.6746 113.219 53.6746C113.074 53.6746 112.982 53.6991 112.913 53.7481C112.845 53.7971 112.791 53.9032 112.768 54.0256C112.623 54.9644 112.486 55.6745 112.386 56.1317C112.341 56.3112 112.363 56.4092 112.409 56.4582C112.455 56.5071 112.554 56.5316 112.715 56.5316C114.945 56.5316 120.002 56.5316 127.838 56.5316C128.434 56.5316 128.931 56.3521 129.358 56.0011C129.786 55.6419 130.069 55.1603 130.191 54.5807C130.497 53.0624 130.833 51.185 131.237 48.9239C131.306 48.4912 131.237 48.1402 131.001 47.8055C130.787 47.5035 130.481 47.2994 130.076 47.2505C129.985 47.226 129.886 47.226 129.771 47.226C129.626 47.226 129.534 47.226 129.435 47.226C123.24 47.226 119.253 47.226 117.473 47.226C117.305 47.226 117.191 47.2015 117.137 47.1525C117.091 47.1035 117.091 46.9729 117.137 46.7933C117.26 46.2872 117.374 45.6016 117.496 44.7118C117.542 44.3037 117.664 44.0261 117.802 43.871C117.947 43.7159 118.23 43.6425 118.612 43.6425C125.425 43.6425 129.954 43.6425 132.238 43.6425C132.406 43.6425 132.498 43.618 132.574 43.5445C132.643 43.4956 132.696 43.3649 132.719 43.218C132.864 42.3038 132.979 41.6181 133.101 41.1855C133.147 41.0059 133.147 40.8834 133.101 40.8263C133.055 40.7773 132.956 40.7528 132.765 40.7528C131.864 40.7528 129.16 40.7528 124.646 40.7528H116.717C116.091 40.7692 115.541 40.9487 115.113 41.3242ZM105.642 43.6343C106.047 43.6588 106.352 43.7894 106.589 44.018C106.826 44.271 106.948 44.5975 106.925 45.0547C106.902 45.3077 106.879 45.5608 106.833 45.8628C106.81 46.0179 106.765 46.2954 106.688 46.6709C106.306 48.8259 105.978 50.6299 105.688 52.0747C105.52 52.9645 105.023 53.4461 104.213 53.5685C104.022 53.593 103.809 53.6175 103.572 53.6175H97.3085C97.0717 53.6175 96.9495 53.593 96.9037 53.5685C96.8808 53.544 96.8807 53.3889 96.9266 53.1359L97.973 47.5525C97.9959 47.3974 97.9959 47.3239 97.973 47.275C97.9272 47.2015 97.8279 47.177 97.6904 47.177C97.3085 47.177 96.8578 47.177 96.3384 47.177C95.7427 47.177 95.292 47.177 94.9865 47.177C94.7268 47.177 94.5587 47.2015 94.5129 47.2505C94.4671 47.2994 94.3907 47.4545 94.3449 47.7321L92.8019 56.0745C92.779 56.2541 92.779 56.3521 92.8019 56.401C92.8478 56.45 92.9471 56.4745 93.1075 56.4745C94.8872 56.4745 98.9202 56.4745 105.191 56.4745C106.07 56.4745 106.902 56.1153 107.681 55.4378C108.437 54.7521 108.919 53.944 109.079 53.0053C109.766 49.2993 110.263 46.5403 110.622 44.6873C110.714 44.1567 110.767 43.8792 110.79 43.7976C110.836 43.4711 110.836 43.1609 110.79 42.8833C110.668 42.2221 110.385 41.6916 109.957 41.3079C109.507 40.9243 108.987 40.7283 108.346 40.7283C107.895 40.7283 105.856 40.7283 102.22 40.7283C99.0118 40.7283 96.9495 40.7283 96.0253 40.7283C95.8801 40.7283 95.7656 40.7528 95.7197 40.8018C95.651 40.8508 95.5975 40.9814 95.5746 41.1283C95.5517 41.4059 95.4829 41.765 95.4066 42.1405C95.3607 42.3691 95.2844 42.6956 95.2156 43.1527C95.1698 43.3813 95.1698 43.5119 95.1927 43.5364C95.2156 43.5853 95.3378 43.5853 95.5517 43.5853H105.359C105.504 43.6343 105.596 43.6343 105.642 43.6343ZM86.7295 20.4273C87.0351 20.1498 87.5163 20.0192 88.1044 20.0192C93.138 20.0192 96.4836 20.0192 98.1411 20.0192C98.3091 20.0192 98.4008 19.9947 98.4771 19.9212C98.5459 19.8722 98.5688 19.7416 98.5993 19.5947C98.7216 18.7866 98.859 18.1009 98.9813 17.5621C99.0271 17.3826 99.0271 17.2846 98.9583 17.203C98.9125 17.154 98.8132 17.1295 98.6528 17.1295C97.7515 17.1295 95.7121 17.1295 92.527 17.1295H86.6379C85.7366 17.1295 84.904 17.456 84.1478 18.0927C83.3916 18.7294 82.9104 19.5131 82.7271 20.4518C82.4903 21.6436 82.2077 23.17 81.8716 24.9904C81.3522 27.8555 81.062 29.382 81.0391 29.5289C80.8939 30.2636 80.9932 30.9492 81.3217 31.5288C81.5814 32.0104 81.9175 32.3369 82.3681 32.5655C82.75 32.7696 83.2236 32.843 83.743 32.843H95.9183C96.01 32.843 96.0635 32.8185 96.1093 32.794C96.1551 32.7696 96.178 32.6961 96.2009 32.59C96.369 31.6512 96.5065 30.8921 96.6287 30.3289C96.6516 30.1738 96.6516 30.0758 96.6287 30.0268C96.5829 29.9779 96.4836 29.9534 96.3461 29.9534C95.8038 29.9534 93.3519 29.9534 88.9905 29.9534H86.3324C85.8588 29.9534 85.4769 29.7983 85.1943 29.5207C84.9117 29.2432 84.7894 28.8595 84.8124 28.4269C84.8124 28.2963 84.8582 28.1494 84.904 27.9208C84.9498 27.6923 84.9957 27.5127 84.9957 27.4147C85.0415 27.0066 85.1637 26.729 85.3012 26.6066C85.4463 26.4515 85.706 26.4025 86.1109 26.4025C91.2361 26.4025 94.5129 26.4025 95.9871 26.4025C96.1322 26.4025 96.2239 26.378 96.2697 26.3291C96.3384 26.2801 96.3919 26.174 96.3919 26.0515C96.537 25.2434 96.6516 24.5822 96.7509 24.0516C96.7967 23.7741 96.8196 23.5945 96.7738 23.57C96.7509 23.5455 96.6058 23.5455 96.3461 23.5455C92.5499 23.5455 89.1509 23.5455 86.1185 23.5455C85.9504 23.5455 85.8588 23.521 85.813 23.4721C85.7671 23.4231 85.7671 23.2925 85.7901 23.1455C85.8359 22.966 85.8817 22.7374 85.9352 22.4599L86.0574 21.7742C86.1796 21.162 86.4164 20.7049 86.7295 20.4273ZM68.5659 23.4476C68.5888 23.2925 68.5888 23.219 68.5429 23.17C68.4971 23.1211 68.4207 23.1211 68.2832 23.1211C67.3132 23.1211 66.3355 23.1211 65.3425 23.1211C65.2203 23.1211 65.1516 23.1455 65.0828 23.17C65.0141 23.219 64.9912 23.3006 64.9606 23.4231C64.9148 23.6516 64.5329 25.5046 63.8454 28.982L63.158 32.4104C63.1122 32.6389 63.1122 32.7696 63.158 32.8185C63.2038 32.8675 63.326 32.892 63.5399 32.892H64.8919C65.0599 32.892 65.2967 32.892 65.6022 32.892C65.8848 32.892 66.1216 32.892 66.3126 32.9165C66.4577 32.9165 66.5494 32.892 66.6181 32.843C66.6869 32.794 66.7403 32.6879 66.7632 32.541C67.4507 28.9493 68.0465 25.9046 68.5659 23.4476ZM80.2676 5.35868C80.3593 5.1546 80.3898 4.97502 80.3134 4.8036C80.2676 4.64851 80.1225 4.52607 79.9315 4.44444C79.626 4.31383 79.2441 4.24037 78.8164 4.21588C77.7012 4.1669 76.5173 4.28934 75.2111 4.64851C74.9056 4.72197 74.6153 4.74646 74.3785 4.673C74.1188 4.59953 73.8821 4.46893 73.6453 4.24037C72.1482 2.82003 70.5136 2.13435 68.7797 2.15884C68.5658 2.15884 68.3978 2.15884 68.3062 2.15884C68.1152 2.15884 67.9472 2.18332 67.8326 2.20781C66.1216 2.50984 64.7009 3.35061 63.6087 4.74646C62.5164 6.11782 61.9741 7.76672 61.9435 9.64418C61.9435 10.1748 61.7296 10.6074 61.3248 10.9339C60.4006 11.6931 59.7132 12.2808 59.2625 12.6563C58.9035 12.9583 58.6209 13.2358 58.407 13.4644C58.1244 13.7909 57.9105 14.1256 57.7654 14.4766C57.6737 14.7296 57.6432 14.9337 57.7425 15.1133C57.8112 15.2929 57.9793 15.4153 58.2161 15.4725C58.5521 15.5459 58.8806 15.6276 59.2396 15.6276C59.7819 15.652 60.4006 15.652 61.0422 15.5541C61.5158 15.5051 62.1116 15.3745 62.8219 15.2276C63.158 15.1541 63.4406 15.1541 63.7003 15.2521C63.96 15.3255 64.2197 15.5051 64.487 15.7337C65.3884 16.5989 66.3584 17.1785 67.4048 17.4805C68.4742 17.7825 69.5665 17.807 70.7504 17.554C72.2475 17.1948 73.5001 16.3867 74.5008 15.0643C75.5014 13.7746 76.0208 12.2971 76.0895 10.6237C76.1124 10.1911 76.1353 9.88906 76.2117 9.68499C76.3034 9.35848 76.4943 9.10543 76.754 8.90136C77.0596 8.6728 77.4186 8.39526 77.8234 8.03609C78.0602 7.83202 78.3962 7.55448 78.8698 7.14634C79.5114 6.62392 79.985 6.01987 80.2676 5.35868ZM118.482 17.5295C117.962 17.2275 117.366 17.0969 116.679 17.1458C115.587 17.2438 114.617 17.7009 113.715 18.5662C112.814 19.407 112.264 20.4192 112.05 21.5375C111.982 21.9211 111.454 24.7863 110.439 30.1656C110.202 31.488 110.057 32.2716 110.011 32.5002C109.988 32.6798 109.965 32.7532 109.965 32.7532C109.965 32.8512 110.034 32.9083 110.179 32.9083C110.347 32.9083 110.866 32.9083 111.722 32.9083C112.341 32.9083 112.86 32.9083 113.265 32.8838C113.387 32.8838 113.456 32.8349 113.502 32.7859C113.524 32.7369 113.57 32.6553 113.57 32.5573L114.09 29.7411C114.685 26.4923 115.136 24.0843 115.442 22.4599C115.51 22.1334 115.633 21.8803 115.846 21.7007C116.06 21.5211 116.32 21.4722 116.633 21.4966C116.824 21.5211 116.992 21.5946 117.13 21.7497C117.221 21.8476 117.344 22.0027 117.466 22.2068L122.736 30.9819C123.095 31.5941 123.523 32.0512 123.974 32.3777C124.47 32.7369 125.066 32.9083 125.73 32.9328C125.799 32.9573 125.898 32.9328 126.013 32.9083C126.082 32.8838 126.204 32.8593 126.349 32.8349C127.418 32.6308 128.343 32.1247 129.129 31.3411C129.916 30.5574 130.39 29.5942 130.604 28.4759C130.84 27.2351 131.008 26.3209 131.123 25.7087L132.643 17.5948C132.666 17.4397 132.666 17.3418 132.62 17.2928C132.574 17.2438 132.475 17.1948 132.337 17.2193C131.314 17.2438 130.367 17.2438 129.465 17.2193C129.32 17.2193 129.229 17.2438 129.183 17.2928C129.137 17.3418 129.091 17.4479 129.061 17.5703C128.755 19.3172 128.488 20.7702 128.274 21.9048L127.205 27.6351C127.113 28.1657 126.846 28.5004 126.395 28.5738C125.967 28.6473 125.608 28.4759 125.326 27.9943C125.203 27.7902 125.043 27.5372 124.852 27.2106C124.592 26.778 124.424 26.525 124.378 26.4515L119.773 18.9662C119.383 18.2723 118.963 17.8152 118.482 17.5295Z" fill="url(#paint12_linear_12_502)"/>
</g>
</g>
<g id="Group_4">
<path id="Vector_28" d="M2.01377 74.391C1.49437 74.391 1.05135 74.1951 0.684718 73.8033C0.318083 73.4115 0.134766 72.938 0.134766 72.383V65.6731C0.134766 65.118 0.318083 64.6446 0.684718 64.2528C1.05135 63.8609 1.49437 63.665 2.01377 63.665H10.1485V65.469H2.30402C2.07487 65.469 1.92975 65.4935 1.87628 65.5425C1.82281 65.5915 1.7999 65.7384 1.7999 65.9915V72.0728C1.7999 72.3177 1.82281 72.4728 1.87628 72.5217C1.92975 72.5707 2.06724 72.5952 2.30402 72.5952H10.1408V74.3992H2.01377V74.391Z" fill="#01ACEA"/>
<path id="Vector_29" d="M17.6339 74.391C17.1145 74.391 16.6715 74.1951 16.3048 73.8033C15.9382 73.4115 15.7549 72.938 15.7549 72.383V65.6731C15.7549 65.118 15.9382 64.6446 16.3048 64.2528C16.6715 63.8609 17.1145 63.665 17.6339 63.665H23.9125C24.4319 63.665 24.8749 63.8609 25.2416 64.2528C25.6082 64.6446 25.7915 65.118 25.7915 65.6731V72.383C25.7915 72.938 25.6082 73.4115 25.2416 73.8033C24.8749 74.1951 24.4319 74.391 23.9125 74.391H17.6339ZM17.9318 72.587H23.607C23.8361 72.587 23.9813 72.5626 24.0347 72.5136C24.0882 72.4646 24.1111 72.3177 24.1111 72.0646V65.9833C24.1111 65.7384 24.0882 65.5833 24.0347 65.5343C23.9813 65.4854 23.8438 65.4609 23.607 65.4609H17.9318C17.7026 65.4609 17.5575 65.4854 17.504 65.5343C17.4506 65.5833 17.4277 65.7302 17.4277 65.9833V72.0646C17.4277 72.3095 17.4506 72.4646 17.504 72.5136C17.5575 72.5626 17.695 72.587 17.9318 72.587Z" fill="#01ACEA"/>
<path id="Vector_30" d="M31.5205 74.3908V63.6484H33.4301L37.1957 68.4482L40.9461 63.6484H42.8709V74.3826H41.1829V66.1544L37.1957 71.2399L33.1933 66.1708V74.3826H31.5205V74.3908Z" fill="#01ACEA"/>
<path id="Vector_31" d="M48.6523 74.3908V63.6484H50.5619L54.3275 68.4482L58.0779 63.6484H60.0028V74.3826H58.3147V66.1544L54.3275 71.2399L50.3251 66.1708V74.3826H48.6523V74.3908Z" fill="#01ACEA"/>
<path id="Vector_32" d="M67.6339 74.3908C67.1145 74.3908 66.6715 74.1949 66.3048 73.803C65.9382 73.4112 65.7549 72.9378 65.7549 72.3827V63.6484H67.4277V72.0562C67.4277 72.3011 67.4506 72.4562 67.504 72.5051C67.5575 72.5541 67.695 72.5786 67.9318 72.5786H73.607C73.8361 72.5786 73.9813 72.5541 74.0347 72.5051C74.0882 72.4562 74.1111 72.3092 74.1111 72.0562V63.6484H75.7991V72.3745C75.7991 72.9296 75.6158 73.4031 75.2492 73.7949C74.8826 74.1867 74.4395 74.3826 73.9201 74.3826H67.6339V74.3908Z" fill="#01ACEA"/>
<path id="Vector_33" d="M81.5205 74.3908V63.6484H83.4301L89.8767 71.8521V63.6484H91.5648V74.3826H89.6552L83.1933 66.1708V74.3826H81.5205V74.3908Z" fill="#01ACEA"/>
<path id="Vector_34" d="M97.2549 74.3908V63.6484H98.9124V74.3826H97.2549V74.3908Z" fill="#01ACEA"/>
<path id="Vector_35" d="M108.315 74.3908V65.4524H104.129V63.6484H114.173V65.4524H110.003V74.3826H108.315V74.3908Z" fill="#01ACEA"/>
<path id="Vector_36" d="M123.5 74.3904V70.3661L118.871 63.6562H120.842L124.355 68.3662L127.831 63.6562H129.824L125.196 70.3824V74.3904H123.5Z" fill="#01ACEA"/>
</g>
</g>
<defs>
<linearGradient id="paint0_linear_12_502" x1="82.0952" y1="52.1461" x2="82.0952" y2="-8.93754" gradientUnits="userSpaceOnUse">
<stop offset="0.1296" stop-color="#FFFC87"/>
<stop offset="0.2255" stop-color="white"/>
<stop offset="0.3162" stop-color="#55FFFC"/>
<stop offset="0.3903" stop-color="#F6EDCB"/>
<stop offset="0.4313" stop-color="#7694B1"/>
<stop offset="0.4709" stop-color="#ECF8FF"/>
<stop offset="1" stop-color="#D4FFFF"/>
</linearGradient>
<linearGradient id="paint1_linear_12_502" x1="60.8749" y1="52.1467" x2="60.8749" y2="-8.93699" gradientUnits="userSpaceOnUse">
<stop offset="0.1296" stop-color="#FFFC87"/>
<stop offset="0.2255" stop-color="white"/>
<stop offset="0.3162" stop-color="#55FFFC"/>
<stop offset="0.3903" stop-color="#F6EDCB"/>
<stop offset="0.4313" stop-color="#7694B1"/>
<stop offset="0.4709" stop-color="#ECF8FF"/>
<stop offset="1" stop-color="#D4FFFF"/>
</linearGradient>
<linearGradient id="paint2_linear_12_502" x1="101.728" y1="52.1468" x2="101.728" y2="-8.93692" gradientUnits="userSpaceOnUse">
<stop offset="0.1296" stop-color="#FFFC87"/>
<stop offset="0.2255" stop-color="white"/>
<stop offset="0.3162" stop-color="#55FFFC"/>
<stop offset="0.3903" stop-color="#F6EDCB"/>
<stop offset="0.4313" stop-color="#7694B1"/>
<stop offset="0.4709" stop-color="#ECF8FF"/>
<stop offset="1" stop-color="#D4FFFF"/>
</linearGradient>
<linearGradient id="paint3_linear_12_502" x1="122.725" y1="52.1461" x2="122.725" y2="-8.93754" gradientUnits="userSpaceOnUse">
<stop offset="0.1296" stop-color="#FFFC87"/>
<stop offset="0.2255" stop-color="white"/>
<stop offset="0.3162" stop-color="#55FFFC"/>
<stop offset="0.3903" stop-color="#F6EDCB"/>
<stop offset="0.4313" stop-color="#7694B1"/>
<stop offset="0.4709" stop-color="#ECF8FF"/>
<stop offset="1" stop-color="#D4FFFF"/>
</linearGradient>
<linearGradient id="paint4_linear_12_502" x1="90.0013" y1="52.1465" x2="90.0013" y2="-8.93713" gradientUnits="userSpaceOnUse">
<stop offset="0.1296" stop-color="#FFFC87"/>
<stop offset="0.2255" stop-color="white"/>
<stop offset="0.3162" stop-color="#55FFFC"/>
<stop offset="0.3903" stop-color="#F6EDCB"/>
<stop offset="0.4313" stop-color="#7694B1"/>
<stop offset="0.4709" stop-color="#ECF8FF"/>
<stop offset="1" stop-color="#D4FFFF"/>
</linearGradient>
<linearGradient id="paint5_linear_12_502" x1="69.0497" y1="52.1461" x2="69.0497" y2="-8.93759" gradientUnits="userSpaceOnUse">
<stop offset="0.1296" stop-color="#FFFC87"/>
<stop offset="0.2255" stop-color="white"/>
<stop offset="0.3162" stop-color="#55FFFC"/>
<stop offset="0.3903" stop-color="#F6EDCB"/>
<stop offset="0.4313" stop-color="#7694B1"/>
<stop offset="0.4709" stop-color="#ECF8FF"/>
<stop offset="1" stop-color="#D4FFFF"/>
</linearGradient>
<linearGradient id="paint6_linear_12_502" x1="121.395" y1="52.1467" x2="121.395" y2="-8.93696" gradientUnits="userSpaceOnUse">
<stop offset="0.1296" stop-color="#FFFC87"/>
<stop offset="0.2255" stop-color="white"/>
<stop offset="0.3162" stop-color="#55FFFC"/>
<stop offset="0.3903" stop-color="#F6EDCB"/>
<stop offset="0.4313" stop-color="#7694B1"/>
<stop offset="0.4709" stop-color="#ECF8FF"/>
<stop offset="1" stop-color="#D4FFFF"/>
</linearGradient>
<linearGradient id="paint7_linear_12_502" x1="14.0461" y1="52.1468" x2="14.0461" y2="-8.93691" gradientUnits="userSpaceOnUse">
<stop offset="0.1296" stop-color="#FFFC87"/>
<stop offset="0.2255" stop-color="white"/>
<stop offset="0.3162" stop-color="#55FFFC"/>
<stop offset="0.3903" stop-color="#F6EDCB"/>
<stop offset="0.4313" stop-color="#7694B1"/>
<stop offset="0.4709" stop-color="#ECF8FF"/>
<stop offset="1" stop-color="#D4FFFF"/>
</linearGradient>
<linearGradient id="paint8_linear_12_502" x1="65.853" y1="52.1462" x2="65.853" y2="-8.93743" gradientUnits="userSpaceOnUse">
<stop offset="0.1296" stop-color="#FFFC87"/>
<stop offset="0.2255" stop-color="white"/>
<stop offset="0.3162" stop-color="#55FFFC"/>
<stop offset="0.3903" stop-color="#F6EDCB"/>
<stop offset="0.4313" stop-color="#7694B1"/>
<stop offset="0.4709" stop-color="#ECF8FF"/>
<stop offset="1" stop-color="#D4FFFF"/>
</linearGradient>
<linearGradient id="paint9_linear_12_502" x1="41.9526" y1="52.1475" x2="41.9526" y2="-8.93617" gradientUnits="userSpaceOnUse">
<stop offset="0.1296" stop-color="#FFFC87"/>
<stop offset="0.2255" stop-color="white"/>
<stop offset="0.3162" stop-color="#55FFFC"/>
<stop offset="0.3903" stop-color="#F6EDCB"/>
<stop offset="0.4313" stop-color="#7694B1"/>
<stop offset="0.4709" stop-color="#ECF8FF"/>
<stop offset="1" stop-color="#D4FFFF"/>
</linearGradient>
<linearGradient id="paint10_linear_12_502" x1="11.786" y1="52.1463" x2="11.786" y2="-8.93735" gradientUnits="userSpaceOnUse">
<stop offset="0.1296" stop-color="#FFFC87"/>
<stop offset="0.2255" stop-color="white"/>
<stop offset="0.3162" stop-color="#55FFFC"/>
<stop offset="0.3903" stop-color="#F6EDCB"/>
<stop offset="0.4313" stop-color="#7694B1"/>
<stop offset="0.4709" stop-color="#ECF8FF"/>
<stop offset="1" stop-color="#D4FFFF"/>
</linearGradient>
<linearGradient id="paint11_linear_12_502" x1="38.5778" y1="52.1468" x2="38.5778" y2="-8.93692" gradientUnits="userSpaceOnUse">
<stop offset="0.1296" stop-color="#FFFC87"/>
<stop offset="0.2255" stop-color="white"/>
<stop offset="0.3162" stop-color="#55FFFC"/>
<stop offset="0.3903" stop-color="#F6EDCB"/>
<stop offset="0.4313" stop-color="#7694B1"/>
<stop offset="0.4709" stop-color="#ECF8FF"/>
<stop offset="1" stop-color="#D4FFFF"/>
</linearGradient>
<linearGradient id="paint12_linear_12_502" x1="67.0898" y1="56.2526" x2="67.0898" y2="-0.458235" gradientUnits="userSpaceOnUse">
<stop stop-color="#FF7400"/>
<stop offset="0.1629" stop-color="#FFB900"/>
<stop offset="0.3226" stop-color="#68DB34"/>
<stop offset="0.4558" stop-color="#00F3FF"/>
<stop offset="0.6552" stop-color="#2B93F1"/>
<stop offset="1" stop-color="#00E662"/>
</linearGradient>
</defs>
</svg>
